<?xml version="1.0" encoding="utf-8"?>
<!-- Generator: Adobe Illustrator 19.2.0, SVG Export Plug-In . SVG Version: 6.00 Build 0)  -->
<svg version="1.1" id="_x5C1_כמי_x5F_1" xmlns="http://www.w3.org/2000/svg" xmlns:xlink="http://www.w3.org/1999/xlink" x="0px"
	 y="0px" viewBox="0 0 65 57" style="enable-background:new 0 0 65 57;" xml:space="preserve">
<style type="text/css">
	.st0{opacity:0.25;fill:#F7B9A2;}
	.st1{fill:#42210B;}
</style>
<g>
	<path class="st0" d="M11.7,4.5c-2,1.7-2.3,4.2-3.4,6.3c-1.1,2.1-2.1,1.4-3.9,2.6c-3.7,2.5,1.8,2.6,3.4,4.5c1.3,1.6,1.4,5.5,1.8,7.6
		c1.3,6.3,1.9,12.7,7.8,16.5c7.5,4.9,17.4,4.5,26,4.5c3.7,0,7.6-0.1,11.1-0.3c1.9-0.1,6.6,0.7,7.7-1.3c1.3-2.4-2.7-5.2-3.9-6.8
		c-2-2.6-4-5.3-5.8-8c-6.1-8.9-11.1-19.8-20-26.2c-4.3-3-14.7-6.3-18.7-1.5L11.7,4.5z"/>
	<g>
		<g>
			<path class="st1" d="M7.2,11.8c0.3-5.5,5.8-9.9,10.7-11.4c1.7-0.5,3.5-0.4,5.3-0.3c1.7,0,3.3,0.2,4.9,0.7
				c3.1,0.9,5.6,2.4,7.8,4.8c0.5,0.6,0.9,1.2,1.4,1.8c0.4,0.5,1.1,0.8,1.5,1.3c1.1,1.5,2,3.2,2.9,4.8c2,3.3,4,6.8,6.4,9.9
				c2.1,2.7,3.7,5.7,5.6,8.5c1.1,1.6,2.2,3.2,3.4,4.7c1.1,1.5,2,3.4,3.3,4.6c0.2,0.2-0.1,0.6-0.4,0.3c-0.8-0.8-1.4-1.8-1.9-2.7
				c-1-1.6-2.4-3.1-3.5-4.6c-1.9-2.5-3.3-5.3-5.3-7.8c-4-5.2-7.2-10.7-10.6-16.3C37.8,9,36.5,8,35.5,6.8c-1-1.3-2.4-2.5-3.8-3.4
				c-3-1.9-6.5-2.2-10-2.3C18.2,1,15,2.4,12.2,4.5C9.7,6.4,8.5,9.2,7.2,11.8C7.2,11.9,7.2,11.8,7.2,11.8L7.2,11.8z"/>
		</g>
		<g>
			<path class="st1" d="M9.4,11.5c-1,0.7-2.2,1-3.4,1.6c-1.4,0.7-2.9,1.2-4.3,1.9c0-0.3,0-0.6,0-0.8c0.7,0.6,0.8,0.2,1.5,0.4
				c0.6,0.2,1.3,0.5,1.9,0.7c1.3,0.5,3,0.9,4.4,1.1c0.5,0.1,0.5,0.9,0,0.8c-1.4-0.2-2.8-0.7-4.1-1c-0.9-0.2-1.8-0.7-2.8-0.7
				c-0.5,0-0.9-0.2-1.4-0.4c-0.3-0.2-0.3-0.6,0-0.8c2.3-1.5,5.3-2.7,8.1-2.9C9.5,11.2,9.5,11.4,9.4,11.5L9.4,11.5z"/>
		</g>
		<g>
			<path class="st1" d="M9,11.3c0.8,0.1,1.2,1.5,1.3,2.2c0.2,0.9,0.3,2.8-0.3,3.6c-0.2,0.2-0.6,0.1-0.5-0.2c0.3-0.9,0.3-1.8,0.4-2.7
				C9.9,13.5,9.7,11.7,9,11.3C8.9,11.4,8.9,11.3,9,11.3L9,11.3z"/>
		</g>
		<g>
			<path class="st1" d="M9.7,16.9C9.6,16.9,9.6,16.8,9.7,16.9C9.7,16.8,9.7,16.9,9.7,16.9L9.7,16.9z"/>
		</g>
		<g>
			<path class="st1" d="M17.5,7c0-0.1,0-0.1,0-0.2c0,0,0-0.1,0.1-0.1c1.6-0.5,3.8-0.5,4.5,1.4c0.7,1.9-0.7,3.4-2.5,3.5
				c-2,0.1-3.3-1-3.3-3c0-2.1,2-2.4,3.7-2.1c1.5,0.3,2.3,2.7,1.3,3.9c-0.5,0.6-1.3,0.7-2,0.7c-1-0.1-1.4-0.8-1.7-1.6
				c-0.6-1.5,0.2-3.5,2.1-2.8c1.3,0.5,2.2,3.1,0.6,3.8c-1.2,0.5-2.3-0.4-2.8-1.4c-0.6-1.2-0.2-2.1,1.1-2.4c1.1-0.3,2.2,0.6,2.2,1.7
				c0,1.3-1.3,1.6-2.4,1.5c-0.6-0.1-0.6-0.9,0-0.9c0.5,0,1.4,0.1,1.3-0.6c-0.2-0.8-1.6-0.8-1.4,0.1c0.1,0.5,0.6,1.1,1.1,1.3
				c0.5,0.2,0.8-0.4,0.8-0.8c0-0.4-0.2-0.8-0.5-1c-0.5-0.6-1.4-0.3-1.5,0.5c-0.1,0.6,0.4,1.8,1.1,1.9c0.5,0.1,1.2,0,1.4-0.6
				c0.2-0.6,0-1.5-0.5-1.8c-0.4-0.3-1-0.3-1.5-0.3c-0.8,0-1.2,0.3-1.3,1.2c-0.1,1.4,1,1.9,2.3,1.9c1.7,0.1,2.3-1.7,1.3-2.9
				C20.3,7.1,19.6,7,19,6.9C18.8,6.9,17.6,6.8,17.5,7C17.6,7.1,17.5,7.1,17.5,7L17.5,7z"/>
		</g>
		<g>
			<path class="st1" d="M19.2,5.4c2.9,0.1,5,1.5,4.7,4.6c-0.1,1.1-1.2,2.1-2,2.8c-0.4,0.3-1.4,0.1-1.9,0.2c-0.5,0.1-1.4,0-1.9-0.1
				c-3-0.9-3.2-3.6-2.5-6.2C16.3,4.6,20,4,21.5,5.5c0.2,0.2-0.1,0.5-0.3,0.4c-1.8-0.9-4.8-0.7-5.1,1.8C16,8.5,15.8,9.1,15.9,10
				c0.2,1.3,1.5,2.2,2.7,2.3c1.7,0.2,3.5-0.2,4.4-1.7c0.6-0.9,0.3-2.8-0.3-3.7C22,6,20.4,5.6,19.2,5.4C19.2,5.5,19.2,5.4,19.2,5.4
				L19.2,5.4z"/>
		</g>
		<g>
			<path class="st1" d="M8,16.2c0.2,1.3,0.2,2.7,0.4,4c0.2,1.7,0.5,3.3,0.8,4.9c0.4,1.9,0.6,3.7,1.3,5.5c0.6,1.6,1.5,3,2.1,4.5
				c1.2,3.1,3,5.3,6,6.8c3.5,1.7,6.8,2.5,10.6,2.8c3.4,0.3,6.8,0.4,10.2,0.5c3.1,0.1,6.1,0.5,9.3,0.3c3.2-0.2,6.4-0.8,9.6-0.9
				c0.8,0,1.5,0.1,2.3,0.1c0.1,0,2.8,0,2.2-0.6c-0.7-0.7-1.5-0.9-2.1-1.8c-0.2-0.3,0.3-0.6,0.6-0.3c0.7,1,3.8,2.1,1.5,3.2
				c-1.2,0.6-2.9,0.3-4.2,0.3c-1.8,0-3.5,0.5-5.3,0.6c-2,0.1-4,0.4-6,0.5c-1.9,0.1-3.8,0-5.7,0c-4.1,0-8.3,0.1-12.4-0.2
				C22.5,46,15,44,12,37.4c-1.6-3.5-2.7-7-3.3-10.7c-0.6-3.4-1.5-7-0.7-10.4C7.9,16.2,8,16.2,8,16.2L8,16.2z"/>
		</g>
		<g>
			<path class="st1" d="M36.2,45.5c0.8,1.5,0.5,3.5,0.5,5.2c0.1,1.6-0.1,3.3,1.3,4.4c0.6,0.5,1,0.5,1.2,1.3c0.1,0.4-0.4,0.8-0.7,0.5
				c-0.2-0.2-0.3-0.2-0.3-0.5c0-0.2,0.1-0.3,0.2-0.3c0.1,0,0.2,0,0.2,0c-0.1,0.2-0.2,0.4-0.3,0.6c-0.1-0.5-1.5-1.3-1.9-1.7
				c-0.5-0.6-0.5-1.6-0.6-2.3c-0.1-1,0-2.1-0.1-3.2c-0.1-1.2,0.2-2.5-0.2-3.7C35.4,45.3,36,45.1,36.2,45.5L36.2,45.5z"/>
		</g>
		<g>
			<path class="st1" d="M36.9,54.1c0.2,0.8,0.3,1.7,0.3,2.5c0,0.3-0.4,0.5-0.6,0.3c-0.1-0.1-0.1-0.1-0.2-0.2c-0.1-0.1-0.1-0.2,0-0.3
				c0.1-0.1,0.1-0.1,0.2-0.2c-0.1,0.1-0.1,0.2-0.2,0.3c0-0.9-0.1-1.7,0.1-2.5C36.6,53.9,36.8,53.9,36.9,54.1L36.9,54.1z"/>
		</g>
		<g>
			<path class="st1" d="M36.4,53.6c0,0.4-0.3,0.8-0.3,1.2c0,0.4,0,0.7-0.1,1.1c-0.1,0.3-0.2,0.6-0.5,0.7c-0.3,0.1-0.6-0.1-0.7-0.4
				c-0.1-0.2,0.1-0.3,0.3-0.3c0,0,0.1-0.2,0.1-0.3c0.1-0.2,0.1-0.4,0.2-0.7c0-0.2,0.1-0.3,0.1-0.5C35.6,54.1,36.2,53.9,36.4,53.6
				C36.3,53.5,36.4,53.5,36.4,53.6L36.4,53.6z"/>
		</g>
		<g>
			<path class="st1" d="M25.8,45.6c0.9,0.2,0.5,3.4,0.5,3.9c0,1-0.1,1.9-0.1,2.9c0,0.8,0,1.1,0.6,1.7c0.4,0.4,0.5,0.9,0.9,1.3
				c0.3,0.3-0.1,0.9-0.5,0.6c-0.3-0.2-0.3-0.3-0.5-0.6c-0.3-0.5-0.8-0.6-1.2-1c-0.7-0.8-0.2-2-0.2-2.9c0-1,0.1-2,0.2-2.9
				c0-0.5,0.4-2.3,0.2-2.7C25.7,45.6,25.8,45.6,25.8,45.6L25.8,45.6z"/>
		</g>
		<g>
			<path class="st1" d="M25.6,53.2c0.5,0,0.4,0.7,0.4,1c0,0.3,0.2,0.6,0.2,0.9c0.1,0.5,0,1.1,0,1.5c0,0.5-0.8,0.5-0.8,0c0,0,0,0,0,0
				c0-0.5,0.8-0.5,0.8,0c0,0,0,0,0,0c0,0.5-0.8,0.5-0.8,0c0-0.7,0.1-1.3,0-2C25.5,54.3,25.8,53.5,25.6,53.2
				C25.6,53.3,25.6,53.2,25.6,53.2L25.6,53.2z"/>
		</g>
		<g>
			<path class="st1" d="M25.2,53.6c0,0.2,0.1,0.5,0,0.7c-0.1,0.4-0.2,0.5-0.5,0.8c-0.2,0.2-0.2,0.3-0.4,0.5
				c-0.1,0.2-0.3,0.4-0.5,0.4c-0.4,0.1-0.6-0.5-0.3-0.7c0.2-0.1,0.2-0.5,0.4-0.6c0.1-0.2,0.3-0.4,0.5-0.5c0.2-0.1,0.3-0.5,0.3-0.7
				C24.9,53.4,25.2,53.4,25.2,53.6L25.2,53.6z"/>
		</g>
		<g>
			<path class="st1" d="M46.1,22.1c0.8,0.8,1.3,2,2.1,2.6c0.8,0.6,1.3,1.6,1.7,2.5c1.3,2.4,2.3,5.1,2.9,7.8c1.3,5.9-7.9,1.1-9.9-0.2
				c-2.8-1.8-5.8-3.2-8.4-5.2c-1-0.8-1.8-1.8-2.8-2.7c-1-0.8-1.6-1.8-1.7-3c-0.2-1.1,0.4-1.9,1-2.7c0.9-1.3,1.7-2.4,2.8-3.5
				c1.8-1.7,5.1-3.5,7.6-3.4c0.4,0,0.4,0.7,0,0.7c-2.4,0-5.3,1.8-7.1,3.2c-1.1,0.9-1.9,2.2-2.7,3.4c-1.2,1.7-1,3,0.3,4.6
				c0.5,0.6,1.4,1.1,1.9,1.7c1,1,2,1.8,3.1,2.6c2,1.4,4.3,2.4,6.4,3.7c2,1.3,3.9,2.2,6.2,2.8c0.6,0.1,1.3,0.1,1.9,0.2
				c1,0.1,0.7-1.5,0.6-1.9c-0.1-1.1-0.4-2.2-0.8-3.2c-0.8-2-1.7-3.9-2.6-5.8c-0.4-0.8-1.2-1.2-1.7-2C46.6,23.4,46.5,22.8,46.1,22.1
				C46,22.1,46.1,22.1,46.1,22.1L46.1,22.1z"/>
		</g>
		<g>
			<path class="st1" d="M46.4,24.6c0.2,0.6,0.9,1,1.4,1.5c0.3,0.4,0.8,1.1,0.4,1.5c-0.1,0.1-0.2,0.1-0.3,0c-0.2-0.2-0.2-0.5-0.3-0.7
				c-0.1-0.3-0.4-0.6-0.7-0.9c-0.4-0.4-0.6-0.9-0.6-1.4C46.3,24.5,46.4,24.5,46.4,24.6L46.4,24.6z"/>
		</g>
		<g>
			<path class="st1" d="M47.3,28.8c0.6,0.5,3.1,2.6,2.1,3.5c-0.1,0.1-0.2,0.1-0.3,0c-0.2-0.2-0.2-0.3-0.3-0.6
				c-0.1-0.3-0.3-0.7-0.5-1c-0.4-0.6-0.7-1.2-1.1-1.8C47.2,28.8,47.3,28.7,47.3,28.8L47.3,28.8z"/>
		</g>
		<g>
			<path class="st1" d="M45.9,30.5c0.1,0.3,0.3,0.5,0.5,0.8c0.1,0.2,0.2,0.4,0.4,0.6c0.2,0.4,0.9,0.7,0.8,1.2c0,0.1-0.1,0.1-0.2,0.1
				c-0.5,0.1-1-0.9-1.2-1.3C46,31.5,45.7,31.1,45.9,30.5C45.8,30.5,45.8,30.5,45.9,30.5L45.9,30.5z"/>
		</g>
		<g>
			<path class="st1" d="M42.2,30c0.3,0.3,0.6,0.6,0.9,0.9c0.3,0.2,1,0.6,0.9,1c0,0.1-0.1,0.2-0.2,0.2c-0.4,0.1-0.9-0.5-1.1-0.8
				c-0.2-0.2-0.3-0.3-0.5-0.5c-0.1-0.2-0.2-0.4-0.3-0.6C41.9,30,42.1,29.9,42.2,30L42.2,30z"/>
		</g>
		<g>
			<path class="st1" d="M41.2,26.3c0.4,0,0.8,0.3,1.1,0.6c0.3,0.3,0.6,0.6,1,0.9c0.3,0.3,0.6,0.5,0.7,0.9c0,0.2-0.1,0.3-0.3,0.2
				c-0.6-0.2-1-0.9-1.4-1.4C42,27.2,41.6,26.6,41.2,26.3C41.1,26.4,41.1,26.3,41.2,26.3L41.2,26.3z"/>
		</g>
		<g>
			<path class="st1" d="M41.1,22.4c0.6,0.2,1.2,0.6,1.7,1.1c0.4,0.4,1.1,1.3,0.9,2c0,0.2-0.3,0.2-0.4,0.1c-0.2-0.2-0.2-0.5-0.4-0.7
				c-0.2-0.3-0.4-0.6-0.6-0.9c-0.4-0.5-0.7-1-1.3-1.3C41,22.5,41,22.4,41.1,22.4L41.1,22.4z"/>
		</g>
		<g>
			<path class="st1" d="M41.9,18.3c0.6-0.1,1,0.4,1.3,0.9c0.2,0.3,0.4,0.7,0.6,1c0.1,0.3,0.4,0.6,0.5,0.9c0,0.2-0.1,0.3-0.3,0.3
				c-0.6-0.1-0.8-0.8-0.9-1.3c-0.2-0.5-0.4-1.6-1.1-1.6C41.8,18.5,41.8,18.4,41.9,18.3L41.9,18.3z"/>
		</g>
		<g>
			<path class="st1" d="M38.5,17.6c0.4,0.4,1,0.6,1.3,1.1c0.4,0.5,1,0.9,1.2,1.6c0.1,0.3-0.3,0.6-0.6,0.3c0,0-0.1-0.1-0.1-0.1
				c-0.1-0.1-0.1-0.2,0-0.3c0,0,0.1-0.1,0.1-0.1c0,0.2,0,0.3,0,0.5c-0.4-0.4-0.8-0.9-1.1-1.4C39,18.7,38.7,18.2,38.5,17.6
				C38.3,17.6,38.4,17.6,38.5,17.6L38.5,17.6z"/>
		</g>
		<g>
			<path class="st1" d="M36.5,19.3c0.5,0.4,1,0.8,1.4,1.2c0.4,0.3,0.9,0.7,1,1.2c0,0.2-0.2,0.3-0.3,0.2c-0.5-0.2-0.9-0.8-1.2-1.2
				c-0.4-0.4-0.7-0.9-1-1.4C36.3,19.3,36.4,19.2,36.5,19.3L36.5,19.3z"/>
		</g>
		<g>
			<path class="st1" d="M33.8,20.7c0.3,0.1,0.5,0.2,0.8,0.4c0.1,0.1,0.2,0.1,0.2,0.2c0,0,0.2,0.2,0.2,0.2c0.3,0.1,0.5,0.3,0.8,0.4
				c0.2,0.1,0.5,0.2,0.5,0.5c0,0.2-0.1,0.3-0.2,0.3c-0.4,0.1-1-0.4-1.3-0.6c-0.2-0.1-0.3-0.2-0.4-0.5c-0.1-0.3-0.4-0.6-0.7-0.7
				C33.5,20.9,33.6,20.7,33.8,20.7L33.8,20.7z"/>
		</g>
		<g>
			<path class="st1" d="M38.5,23.4c0.3,0.5,0.6,0.9,1,1.3c0.3,0.3,0.7,0.5,0.6,0.9c0,0.1-0.1,0.1-0.2,0.1c-0.4,0.1-0.8-0.5-1-0.8
				c-0.3-0.4-0.5-1.1-0.7-1.6C38.3,23.4,38.5,23.3,38.5,23.4L38.5,23.4z"/>
		</g>
		<g>
			<path class="st1" d="M36.3,25.6c0.6,0.4,1.1,0.7,1.6,1.3c0.3,0.3,0.7,0.5,1,0.7c0.3,0.2,0.5,0.5,0.7,0.8c0.3,0.4-0.5,0.9-0.7,0.4
				c-0.1-0.1-0.1-0.3-0.1-0.5c0.1-0.2,0.4-0.3,0.5-0.1c0,0,0,0,0,0c-0.1,0-0.2-0.1-0.3-0.1c0,0,0.1,0,0.1,0
				c-0.1,0.2-0.2,0.4-0.3,0.6c-0.4-0.6-1.1-0.9-1.5-1.4c-0.4-0.5-0.9-1-1.3-1.6C36.1,25.7,36.2,25.5,36.3,25.6L36.3,25.6z"/>
		</g>
		<g>
			<path class="st1" d="M35.5,27c0.3,0.1,0.6,0.3,0.9,0.5c0.2,0.2,0.6,0.5,0.6,0.9c0,0.1-0.1,0.2-0.2,0.2c-0.3,0-0.5-0.3-0.7-0.6
				c-0.2-0.3-0.4-0.6-0.8-0.8C35.3,27.1,35.4,26.9,35.5,27L35.5,27z"/>
		</g>
		<g>
			<path class="st1" d="M55.1,38.9c0.1,0.6,0.3,1.3,0.2,1.9c-0.1,0.6-0.4,1.5-0.9,1.9c-0.1,0.1-0.3,0-0.3-0.1
				c-0.1-0.6,0.3-1.1,0.5-1.6C54.9,40.4,54.9,39.6,55.1,38.9C55.1,38.9,55.1,38.9,55.1,38.9L55.1,38.9z"/>
		</g>
		<g>
			<path class="st1" d="M51.4,40c0.1,0.5,0.1,1.1,0,1.6c-0.1,0.5-0.4,1.2-0.9,1.5c-0.2,0.1-0.4-0.1-0.4-0.3c0.1-0.4,0.4-0.8,0.6-1.2
				C51,41.1,51.2,40.6,51.4,40C51.3,40,51.4,40,51.4,40L51.4,40z"/>
		</g>
		<g>
			<path class="st1" d="M48.7,37.8c0.1,0.7,0.1,2.7-1.1,2.6c-0.3,0-0.4-0.5-0.1-0.5c0.3-0.1,0.5-0.6,0.5-0.8
				c0.1-0.4,0.2-0.8,0.3-1.2C48.5,37.7,48.7,37.7,48.7,37.8L48.7,37.8z"/>
		</g>
		<g>
			<path class="st1" d="M44.1,38.1c0,0.5-0.2,1-0.3,1.4c-0.1,0.4-0.3,0.9-0.7,1.1c-0.2,0.1-0.3-0.1-0.2-0.2c0.2-0.4,0.4-0.7,0.6-1.1
				c0.1-0.2,0.1-0.4,0.2-0.6c0-0.2,0.2-0.4,0.3-0.6C43.9,37.9,44.1,38,44.1,38.1L44.1,38.1z"/>
		</g>
		<g>
			<path class="st1" d="M45,42.7c0.1,0.5,0,1.1-0.3,1.5c-0.3,0.4-0.9,0.7-1.3,0.4c-0.1-0.1-0.1-0.3,0-0.4c0.3-0.2,0.6-0.2,0.9-0.5
				C44.6,43.4,44.8,43.1,45,42.7C44.9,42.6,45,42.6,45,42.7L45,42.7z"/>
		</g>
		<g>
			<path class="st1" d="M39.9,35.7c-0.5,0.2-0.4,1.3-0.5,1.7c-0.1,0.3-0.1,0.5-0.3,0.6c-0.1,0.1-0.4,0.1-0.4-0.1
				c0-0.2,0.1-0.4,0.2-0.6c0.1-0.3,0.2-0.6,0.3-0.9C39.1,36,39.4,35.5,39.9,35.7C39.9,35.6,39.9,35.7,39.9,35.7L39.9,35.7z"/>
		</g>
		<g>
			<path class="st1" d="M34.8,38c0.1,1.1-0.7,2.2-1.8,2.4c-0.2,0-0.3-0.2-0.2-0.3c0.3-0.3,0.7-0.5,1-0.9c0.3-0.4,0.6-0.8,0.7-1.3
				C34.6,37.8,34.8,37.8,34.8,38L34.8,38z"/>
		</g>
		<g>
			<path class="st1" d="M38.2,41.2c0.2,0.5,0.1,1.2-0.2,1.6c-0.3,0.4-1,1.1-1.5,0.7c-0.1-0.1-0.2-0.2-0.1-0.3
				c0.1-0.2,0.3-0.2,0.5-0.3c0.2-0.1,0.4-0.3,0.5-0.5c0.3-0.4,0.4-0.8,0.6-1.2C38.1,41.1,38.2,41.1,38.2,41.2L38.2,41.2z"/>
		</g>
		<g>
			<path class="st1" d="M33.5,42.7c0,0.5-0.2,0.9-0.6,1.2c-0.3,0.3-0.8,0.6-1.3,0.6c-0.2,0-0.3-0.2-0.2-0.3c0.2-0.3,0.5-0.4,0.9-0.6
				c0.4-0.2,0.6-0.6,0.8-0.9C33.2,42.4,33.5,42.5,33.5,42.7L33.5,42.7z"/>
		</g>
		<g>
			<path class="st1" d="M29.8,41.9c-0.5,0.6-0.6,1.4-1.3,1.9c-0.8,0.6-1.6,1-2.5,0.7c-0.2-0.1-0.2-0.3,0-0.4c0.8-0.3,1.5-0.6,2.2-1
				c0.6-0.3,0.8-1.1,1.3-1.5C29.7,41.3,30,41.7,29.8,41.9L29.8,41.9z"/>
		</g>
		<g>
			<path class="st1" d="M28.2,37.9c-0.2,0.1-0.4,0.4-0.5,0.6c-0.1,0.2-0.3,0.4-0.4,0.7c-0.2,0.4-0.5,0.8-0.9,0.9
				c-0.2,0.1-0.3-0.1-0.3-0.3c0.1-0.2,0.2-0.4,0.4-0.6c0.2-0.3,0.4-0.5,0.6-0.8c0.3-0.4,0.5-0.7,1-0.7
				C28.2,37.8,28.2,37.8,28.2,37.9L28.2,37.9z"/>
		</g>
		<g>
			<path class="st1" d="M30.6,33.3c0-0.1,0-0.1,0-0.2c0,0,0.1,0,0.1,0c-0.5,0.6-0.7,2.1-1.7,2.1c-0.2,0-0.2-0.2-0.1-0.3
				c0.2-0.2,0.3-0.3,0.5-0.4c0.2-0.2,0.3-0.4,0.4-0.5c0.2-0.3,0.5-0.6,0.8-0.8c0,0,0.1,0,0.1,0.1C30.6,33.2,30.6,33.2,30.6,33.3
				C30.6,33.3,30.6,33.3,30.6,33.3L30.6,33.3z"/>
		</g>
		<g>
			<path class="st1" d="M34.5,31.6c0.4,0.6,0.4,1.1-0.1,1.6c-0.3,0.4-1,0.7-1.5,0.4c-0.1,0-0.2-0.2,0-0.3c0.3-0.1,0.7-0.1,1-0.3
				C34.4,32.8,34.6,32.2,34.5,31.6C34.4,31.6,34.5,31.6,34.5,31.6L34.5,31.6z"/>
		</g>
		<g>
			<path class="st1" d="M30.5,28.1c-0.3,0.6-0.3,2.5-1.5,2c-0.1-0.1-0.2-0.3,0-0.3c0.8-0.3,0.8-1.3,1.3-1.8
				C30.4,27.8,30.6,27.9,30.5,28.1L30.5,28.1z"/>
		</g>
		<g>
			<path class="st1" d="M26,26.1c0.2,0.7,0.1,1.8-0.7,2.1c-0.1,0.1-0.3,0-0.2-0.2c0.1-0.3,0.3-0.6,0.4-0.9c0.1-0.3,0.1-0.7,0.2-1
				C25.7,25.9,26,25.9,26,26.1L26,26.1z"/>
		</g>
		<g>
			<path class="st1" d="M24.7,31.7c0.1,0.4,0.1,0.6-0.1,1c-0.2,0.3-0.5,0.6-0.8,0.8c-0.1,0-0.2-0.1-0.2-0.2c0.1-0.3,0.4-0.5,0.5-0.7
				c0.2-0.2,0.3-0.6,0.4-0.9C24.6,31.6,24.7,31.6,24.7,31.7L24.7,31.7z"/>
		</g>
		<g>
			<path class="st1" d="M23.9,36.2c0.2,1.2-1.1,1.6-2,1.9c-0.2,0.1-0.5-0.2-0.3-0.4c0.6-0.6,1.8-0.7,2-1.6
				C23.7,36.1,23.9,36.1,23.9,36.2L23.9,36.2z"/>
		</g>
		<g>
			<path class="st1" d="M21.7,40.6c0.1,1.4-1.8,2.5-3.1,2.2c-0.2-0.1-0.2-0.4,0-0.4c1-0.2,2.6-0.7,2.8-1.9
				C21.4,40.4,21.7,40.5,21.7,40.6L21.7,40.6z"/>
		</g>
		<g>
			<path class="st1" d="M18.4,35.2c0.3,0.6-0.3,1.2-0.8,1.6C16.9,37.3,16,38,15,37.8c-0.2,0-0.2-0.3,0-0.4c0.3-0.2,0.6-0.2,1-0.4
				c0.3-0.1,0.6-0.3,0.9-0.5c0.5-0.3,1.4-0.7,1.5-1.4C18.3,35.2,18.4,35.2,18.4,35.2L18.4,35.2z"/>
		</g>
		<g>
			<path class="st1" d="M18.2,30.4c-1,0.8-1.9,2.8-3.4,2.5c-0.2,0-0.2-0.4,0-0.4c1.4-0.4,2-1.8,3.3-2.3
				C18.2,30.2,18.3,30.3,18.2,30.4L18.2,30.4z"/>
		</g>
		<g>
			<path class="st1" d="M16.3,27c-0.4,0.1-0.6,0.5-0.8,0.8c-0.2,0.3-0.5,0.5-0.8,0.7c-0.5,0.4-1.2,0.5-1.8,0.4c-0.2,0-0.1-0.3,0-0.3
				c0.9-0.2,1.5-0.4,2.2-1c0.4-0.3,0.7-0.8,1.2-0.8C16.4,26.8,16.4,27,16.3,27L16.3,27z"/>
		</g>
		<g>
			<path class="st1" d="M17.4,22.6c0,0,0-0.1-0.1-0.1c0.1,0,0.2,0,0.3,0c0,0-0.1,0.4-0.2,0.5c-0.1,0.2-0.3,0.4-0.5,0.6
				c-0.4,0.4-0.9,0.6-1.4,0.6c-0.2,0-0.3-0.3-0.1-0.4c0.5-0.2,0.9-0.6,1.3-0.9c0.2-0.1,0.3-0.3,0.4-0.5c0.1-0.2,0.3-0.2,0.4-0.1
				c0.1,0,0.2,0.2,0.1,0.3c0,0-0.1,0.1-0.1,0.1C17.5,22.6,17.4,22.6,17.4,22.6L17.4,22.6z"/>
		</g>
		<g>
			<path class="st1" d="M21.7,24.7c0.1,0.3,0.1,0.5-0.1,0.8c-0.2,0.3-0.4,0.4-0.7,0.4c-0.2,0-0.2-0.2-0.1-0.3
				c0.2-0.1,0.4-0.2,0.5-0.4c0.1-0.2,0.2-0.4,0.3-0.6C21.6,24.7,21.7,24.7,21.7,24.7L21.7,24.7z"/>
		</g>
		<g>
			<path class="st1" d="M24.3,19c-0.2,0.6-0.3,1.1-0.7,1.6c-0.3,0.4-0.8,0.8-1.4,0.7c-0.1,0-0.3-0.2-0.1-0.3
				c0.4-0.3,0.9-0.5,1.2-0.9c0.2-0.2,0.3-0.5,0.4-0.7c0.1-0.2,0.3-0.4,0.4-0.6C24.3,18.9,24.4,19,24.3,19L24.3,19z"/>
		</g>
		<g>
			<path class="st1" d="M29.5,17.2c0.1,0.5,0.1,1.1,0,1.6c-0.1,0.5-0.7,0.9-1.2,0.8c-0.1,0-0.1-0.2,0-0.3c0.2-0.1,0.4-0.2,0.5-0.3
				c0.1-0.1,0.2-0.4,0.3-0.6C29.3,18,29.3,17.6,29.5,17.2C29.4,17.1,29.5,17.2,29.5,17.2L29.5,17.2z"/>
		</g>
		<g>
			<path class="st1" d="M32.6,12.5c0,0.7-0.2,2.3-1.2,2.2c-0.2,0-0.2-0.2-0.1-0.3c0.6-0.4,1-1.2,1.1-2
				C32.5,12.5,32.6,12.5,32.6,12.5L32.6,12.5z"/>
		</g>
		<g>
			<path class="st1" d="M29.2,10.8c0.2,0.5,0,1.1-0.1,1.6c-0.2,0.5-0.5,0.7-1,0.9c-0.2,0.1-0.4-0.1-0.3-0.3c0.2-0.3,0.4-0.5,0.6-0.7
				c0.4-0.4,0.4-1,0.7-1.4C29,10.8,29.1,10.8,29.2,10.8L29.2,10.8z"/>
		</g>
		<g>
			<path class="st1" d="M24.2,15.3c0.1,0.3,0.1,0.7-0.1,0.9c-0.2,0.3-0.6,0.7-0.9,0.8c-0.1,0-0.2-0.1-0.2-0.2
				c0.1-0.3,0.4-0.5,0.6-0.7c0.1-0.1,0.2-0.3,0.3-0.3C24,15.7,24.2,15.5,24.2,15.3C24.2,15.3,24.2,15.3,24.2,15.3L24.2,15.3z"/>
		</g>
		<g>
			<path class="st1" d="M19,17.5c-0.2,0.4-0.4,0.8-0.8,1.1c-0.4,0.3-0.8,0.5-1.3,0.4c-0.2,0-0.2-0.3,0-0.4c0.4-0.2,0.8-0.3,1.1-0.5
				c0.3-0.2,0.6-0.5,0.9-0.7C18.9,17.3,19,17.4,19,17.5L19,17.5z"/>
		</g>
		<g>
			<path class="st1" d="M12.4,19.1c-0.5,0.6-1.2,0.7-1.9,0.7c-0.2,0-0.2-0.2-0.1-0.3c0.6-0.3,1.2-0.3,1.8-0.7
				C12.3,18.8,12.6,19,12.4,19.1L12.4,19.1z"/>
		</g>
		<g>
			<path class="st1" d="M12.1,23.1c0,0.4-0.2,0.7-0.6,0.7c-0.1,0-0.3,0.2-0.3,0.2c-0.2,0.1-0.4,0.2-0.6,0.3c-0.3,0.1-0.6,0.3-1,0.3
				c-0.2,0-0.3-0.2-0.1-0.3c0.4-0.3,0.8-0.4,1.3-0.6c0.2-0.1,0.4-0.3,0.6-0.3c0.2-0.1,0.4-0.1,0.5-0.3
				C11.9,22.9,12.1,22.9,12.1,23.1L12.1,23.1z"/>
		</g>
		<g>
			<path class="st1" d="M36.7,12.6c0.5,0.8-0.6,2.3-1.6,2.1c-0.1,0-0.2-0.2-0.1-0.3c0.3-0.2,0.6-0.4,0.9-0.6
				c0.4-0.3,0.5-0.7,0.6-1.2C36.6,12.6,36.6,12.6,36.7,12.6L36.7,12.6z"/>
		</g>
		<g>
			<path class="st1" d="M33.9,7.9c-0.3,0.5-0.3,1.5-1,1.5c-0.1,0-0.2-0.2-0.1-0.3c0.4-0.4,0.5-1,1-1.4C33.8,7.6,33.9,7.8,33.9,7.9
				L33.9,7.9z"/>
		</g>
		<g>
			<path class="st1" d="M29.8,4.4c0,0-0.1,0-0.1,0.1c0-0.1,0-0.1,0-0.2c0.2,0.2,0.2,0.7,0.2,1c0,0.3-0.1,0.8-0.5,0.9
				c-0.1,0-0.3-0.1-0.3-0.2c0-0.3,0.1-0.6,0.2-0.8c0.1-0.2,0-0.6,0.1-0.8c0-0.1,0.1-0.1,0.2,0C29.7,4.3,29.8,4.3,29.8,4.4
				C29.9,4.3,29.9,4.4,29.8,4.4L29.8,4.4z"/>
		</g>
		<g>
			<path class="st1" d="M26.8,3.3c0.1,0.3,0.1,0.5,0,0.8c-0.1,0.3-0.1,0.6-0.2,0.9c-0.1,0.1-0.3,0.1-0.3,0c-0.1-0.3-0.1-0.5,0-0.9
				c0.1-0.3,0.1-0.6,0.3-0.9C26.6,3.1,26.8,3.2,26.8,3.3L26.8,3.3z"/>
		</g>
		<g>
			<path class="st1" d="M25.1,9.7c0.1,0.7,0,1.3-0.6,1.7c-0.1,0.1-0.2-0.1-0.1-0.2c0.3-0.5,0.5-1,0.6-1.5C25,9.6,25.1,9.6,25.1,9.7
				L25.1,9.7z"/>
		</g>
		<g>
			<path class="st1" d="M58.3,41.6c0,0.3,0.2,0.6,0.1,0.9c-0.1,0.3-0.2,0.5-0.6,0.6c-0.2,0.1-0.2-0.2-0.1-0.3
				c0.3-0.4,0.3-0.9,0.4-1.3C58.1,41.5,58.3,41.5,58.3,41.6L58.3,41.6z"/>
		</g>
		<g>
			<path class="st1" d="M14.7,14.2c0,0.3,0,0.5-0.1,0.7c-0.2,0.2-0.4,0.4-0.6,0.6c-0.4,0.4-1.1,1-1.6,0.6c-0.2-0.2-0.2-0.7,0.2-0.6
				c0.3,0,0.8-0.2,1-0.3C14,14.8,14.6,14.7,14.7,14.2C14.7,14.1,14.7,14.1,14.7,14.2L14.7,14.2z"/>
		</g>
		<g>
			<path class="st1" d="M12.6,10.1c-0.2,0.1-0.2,0.4-0.4,0.5c-0.2,0.2-0.4,0.4-0.6,0.6c-0.4,0.3-0.7,0.5-1.2,0.5
				c-0.2,0-0.2-0.3-0.1-0.3c0.4-0.3,0.9-0.5,1.3-0.8c0.3-0.2,0.6-0.7,1-0.7C12.7,9.9,12.7,10.1,12.6,10.1L12.6,10.1z"/>
		</g>
		<g>
			<path class="st1" d="M23.1,3.5c-0.2,0-0.2,0.1-0.3,0.3c-0.1,0.2-0.2,0.4-0.3,0.5c-0.1,0.1-0.3,0-0.3-0.1c0-0.1,0-0.3,0.1-0.4
				c0.1-0.1,0.2-0.2,0.3-0.3C22.8,3.3,23,3.3,23.1,3.5C23.2,3.5,23.1,3.5,23.1,3.5L23.1,3.5z"/>
		</g>
		<g>
			<path class="st1" d="M18.3,2.2c-0.1,0-0.1,0-0.2,0.1c0.1-0.1,0.1-0.2,0.2-0.3c0,0.2,0,0.3-0.1,0.5C18.1,2.7,18.1,3,17.8,3
				c-0.3,0-0.3-0.4-0.2-0.6c0-0.1,0.1-0.2,0.1-0.3c0,0,0.1-0.1,0.1-0.1c0-0.1,0.2-0.2,0.3-0.1c0.1,0,0.1,0,0.2,0.1
				C18.4,2,18.4,2.2,18.3,2.2L18.3,2.2z"/>
		</g>
		<g>
			<path class="st1" d="M12.9,4.9C12.9,5,13,5.1,13,5.2c0,0.1,0,0.3,0.1,0.4c0,0.3-0.1,0.6-0.4,0.7c-0.1,0-0.3,0-0.2-0.2
				c0.1-0.2,0.2-0.4,0.2-0.6C12.7,5.3,12.7,5.1,12.9,4.9C12.8,4.9,12.9,4.9,12.9,4.9L12.9,4.9z"/>
		</g>
		<g>
			<path class="st1" d="M62.5,43.6c-1.7-1.7-3.7-2.9-5.4-4.5c-0.2-0.2,0.1-0.4,0.2-0.3c1.1,0.5,1.8,1.5,2.8,2.2
				c1,0.7,1.9,1.7,2.8,2.6c0.2,0.2,0,0.5-0.2,0.4c-1.6-0.5-2.8-2.7-3.8-3.9c-1.6-1.9-2.5-4.4-4.4-6c0.2-0.1,0.3-0.3,0.5-0.4
				c0.5,0.9,1.1,1.8,1.7,2.7c0.5,0.8,1,2,1.8,2.6c-0.1,0.2-0.3,0.3-0.4,0.5c-1.5-1.4-2.3-3.3-3.3-5c-1.3-2.1-2.4-4.1-4.3-5.8
				c0.2-0.1,0.3-0.2,0.5-0.3c0,0,0,0,0,0.1c0.3,0.1,0.2,0.6-0.2,0.5c-0.2,0-0.2-0.1-0.3-0.3c-0.2-0.3,0.2-0.5,0.5-0.3
				c1.5,1.2,2.4,2.8,3.5,4.4c1.4,2.1,2.4,4.7,4.2,6.4c0.3,0.2-0.1,0.7-0.4,0.5c-0.6-0.5-0.9-1.1-1.3-1.7c-0.8-1.3-1.6-2.5-2.4-3.8
				c-0.2-0.3,0.3-0.6,0.5-0.4c1.5,1.3,2.2,3,3.2,4.6c0.7,1,1.4,1.9,2.2,2.8c0.6,0.8,1.5,2.2,2.4,2.5c-0.1,0.1-0.2,0.3-0.2,0.4
				c-1-1-2-2-3.1-2.8c-0.8-0.6-1.4-1.5-2.4-1.9c0.1-0.1,0.2-0.2,0.2-0.3c1.7,1.7,3.7,2.8,5.3,4.6C62.7,43.6,62.6,43.7,62.5,43.6
				L62.5,43.6z"/>
		</g>
		<g>
			<path class="st1" d="M50.8,28.7c0.4,0.6,0.7,1.1,0.9,1.7c0.1,0.1-0.1,0.2-0.2,0.1c-0.2-0.3-0.4-0.7-0.5-1.1
				c-0.1-0.2,0.1-0.3,0.2-0.1c0.1,0.2,0.4,1,0.5,1c0.3-0.1,0.4-0.2,0.7,0.1c0.4,0.4-0.4,0.6-0.6,0.6c-0.1,0-0.2-0.2-0.1-0.3
				c0.3-0.2,0.2-0.2,0.6-0.2c0.1,0,0.2,0.1,0.1,0.2c-0.3,0.5-0.4,1-0.2,1.5c0,0.2-0.2,0.3-0.3,0.1c-0.3-0.7-0.3-1.4-0.3-2.2
				c0-0.2,0.2-0.2,0.3,0c0.3,1.2,0.5,2.5,1,3.6c0.4,0.8,0.6,1.7,0.6,2.6c0,0.2-0.3,0.2-0.3,0c-0.1-1.7-0.9-3.4-1.3-5.1
				c-0.2-0.3-0.2-0.5,0-0.7c0,0.3,0.1,2.1-0.1,0.8c0,0.2,0.2-0.9-0.1-0.6c-0.1,0.1-0.2,0-0.2-0.1c-0.1-0.2,0-0.8-0.1-1
				C51.8,30.8,50.9,29,50.8,28.7C50.8,28.7,50.8,28.7,50.8,28.7L50.8,28.7z"/>
		</g>
		<g>
			<path class="st1" d="M52.9,35.2c0.2,0.4,0.7,0.8,0.5,1.3c0,0.2-0.3,0.2-0.4,0.1c-0.4-0.4-0.8-1.2-0.5-1.8
				c0.1-0.1,0.2-0.2,0.3-0.1c0.5,0.4,0.6,1.1,0.4,1.6c-0.2,0.7-0.9,0.8-1.5,0.7c-0.2,0-0.1-0.3,0-0.3c0.3,0,0.8,0,1-0.3
				c0.2-0.3,0.3-1-0.1-1.2c0.1,0,0.2-0.1,0.3-0.1c-0.2,0.4,0.2,1.1,0.4,1.4c-0.1,0-0.2,0-0.4,0c0.1-0.2-0.1-0.5-0.1-0.7
				C52.8,35.5,52.9,35.3,52.9,35.2C52.9,35.1,52.9,35.1,52.9,35.2L52.9,35.2z"/>
		</g>
		<g>
			<path class="st1" d="M49.7,35.2c0-0.1-0.1-0.1-0.2-0.2c-0.1-0.1-0.2-0.2-0.3-0.2c-0.2-0.2-0.6-0.2-0.6-0.5c0-0.1,0-0.2,0.2-0.3
				c0.3-0.1,0.7,0.2,0.9,0.4c0.3,0.2,0.5,0.5,0.4,0.8C50.1,35.3,49.8,35.4,49.7,35.2L49.7,35.2z"/>
		</g>
		<g>
			<path class="st1" d="M47.6,35.3c0.1,0,0.1,0,0.2,0c0,0.1,0,0.2,0,0.2c-0.5-0.1-0.9-0.5-1.3-0.7c-0.2-0.1,0-0.4,0.2-0.3
				c0.4,0.2,0.9,0.5,1.2,0.8c0.1,0.1,0,0.2-0.1,0.2c-0.1,0-0.1,0-0.2-0.1C47.5,35.4,47.5,35.3,47.6,35.3L47.6,35.3z"/>
		</g>
		<g>
			<path class="st1" d="M44.9,27.5c0-0.1,0-0.1,0-0.2c0-0.1,0.1-0.1,0.2-0.1c0.3,0.1,0.5,0.2,0.7,0.4c0.2,0.2,0.4,0.5,0.5,0.7
				c0,0.1-0.1,0.3-0.2,0.2C45.5,28.4,45.5,27.7,44.9,27.5c0.1-0.1,0.2-0.1,0.2-0.2c0,0.1,0,0.1,0,0.2C45.1,27.7,44.9,27.7,44.9,27.5
				L44.9,27.5z"/>
		</g>
		<g>
			<path class="st1" d="M39.7,16.1c0.5,0.3,0.9,0.7,1.3,1.2c0.1,0.1-0.1,0.2-0.2,0.2C40.4,17,40.1,16.5,39.7,16.1
				C39.7,16.1,39.7,16.1,39.7,16.1L39.7,16.1z"/>
		</g>
		<g>
			<path class="st1" d="M35,19.1c0,0.1,0.1,0.1,0.2,0.1c0.1,0,0.1,0.1,0.2,0.1c0.2,0.1,0.3,0.2,0.4,0.5c0,0.2-0.2,0.3-0.3,0.1
				c-0.3-0.3-0.8-0.4-0.7-0.9C34.8,19,34.9,19,35,19.1L35,19.1z"/>
		</g>
		<g>
			<path class="st1" d="M34.1,24.3c0.1,0.1,0.2,0.2,0.3,0.3c0.1,0.1,0.2,0.3,0.3,0.4c0.1,0.2-0.1,0.5-0.3,0.3
				c-0.1-0.1-0.3-0.2-0.3-0.4c-0.1-0.2-0.1-0.3-0.2-0.5C33.8,24.3,33.9,24.2,34.1,24.3L34.1,24.3z"/>
		</g>
		<g>
			<path class="st1" d="M52.4,35.5c0.1,0.3,0.3,0.2,0.4,0.6c0.1,0.4-0.2,0.7-0.5,0.9c-1.3,1.1-4.3-0.4-5.5-0.8
				c-2.5-0.9-4.8-1.7-7-3.1c-2.2-1.3-4.4-2.8-6.3-4.5c-1.4-1.3-2.9-2.2-3.1-4.3c-0.1-2.2,1.9-4.7,3.1-6.4c1.3-1.8,2.5-2.3,4.6-2.9
				c1.1-0.4,3.5-0.8,4.5,0.2c0.2,0.2,0,0.4-0.2,0.4c-0.6,0-0.9-0.1-1.5-0.2c0.1-0.1,0.1-0.3,0.2-0.4c0.7,0.4,1.5,0.5,1.9,1.2
				c0.1,0.1-0.1,0.3-0.2,0.2c-0.5-0.4-1.4-0.7-2-1c-0.3-0.1-0.1-0.5,0.2-0.4c0.4,0.1,0.9,0.2,1.3,0.2c-0.1,0.1-0.1,0.3-0.2,0.4
				c-0.9-0.9-3.6-0.1-4.5,0.2c-2,0.6-3.2,1.6-4.3,3.5c-1,1.7-2.3,3.2-2.5,5.2c-0.2,2,2.4,3.4,3.7,4.4c2.9,2.3,5.7,4.4,9.1,5.9
				c1.5,0.7,3.2,1.1,4.7,1.7C49.7,36.7,51.7,37.4,52.4,35.5C52.4,35.4,52.4,35.5,52.4,35.5L52.4,35.5z"/>
		</g>
		<g>
			<path class="st1" d="M52.7,31.3c-0.3,0,0.1,0.5,0.2,0.6c0.2,0.2,0.4,0.5,0.7,0.7c-0.1,0-0.1,0.1-0.2,0.1
				c-0.2-0.7-0.8-1.3-1.5-1.5c0-0.1,0.1-0.1,0.1-0.2c0.5,0.6,0.8,1.4,1.7,1.6c0.2,0,0.1,0.3,0,0.3c-0.4,0.1-0.6-0.3-1-0.4
				c0.1,0,0.1,0,0.2-0.1c-0.3,0.3-0.2,0.1-0.1,0c0.1-0.1,0.3,0,0.3,0.2c-0.1,0.3-0.6,0.5-0.6,0.8c-0.1,0-0.1-0.1-0.2-0.1
				c0.5,0,1-0.3,1.5,0.1c0.1,0.1,0.1,0.2,0,0.3c-0.3,0.2-1,0.4-1.1-0.1c0-0.1,0-0.1,0-0.2c0.6-0.4,1.7-0.3,2.1,0.3
				c0.1,0.1,0,0.3-0.2,0.2c-0.3-0.2-0.6-0.3-1-0.3c-0.2,0-0.3,0-0.5,0c-0.2,0-0.2,0,0,0c0.1,0,0.2-0.1,0.3-0.1c0,0.1,0,0.2,0,0.3
				c-0.4-0.3-0.9,0-1.3,0c-0.1,0-0.1-0.1-0.2-0.1c-0.1-0.5,0.4-0.6,0.6-1c0.1,0.1,0.2,0.1,0.3,0.2c-0.1,0.1-0.1,0.1-0.2,0.2
				c0,0-0.1,0.1-0.2,0c-0.4-0.1-0.2-0.4-0.1-0.6c0,0,0.1,0,0.2,0c0.2,0.1,0.6,0.4,0.8,0.4c0,0.1,0,0.2,0,0.3
				c-0.9-0.3-1.2-1.1-1.8-1.7c-0.1-0.1,0-0.3,0.1-0.2c0.7,0.3,1.4,1,1.6,1.7c0,0.1-0.1,0.2-0.2,0.1c-0.5-0.3-1-1-1-1.5c0,0,0,0,0,0
				C52.6,31.2,52.6,31.3,52.7,31.3C52.7,31.3,52.7,31.3,52.7,31.3L52.7,31.3z"/>
		</g>
		<g>
			<path class="st1" d="M54.1,34.1c0.4-0.5,1.5-0.2,1.7,0.4c0,0.1-0.1,0.2-0.2,0.1c-0.1-0.2-0.4-0.3-0.7-0.4
				C54.8,34.1,54.5,34,54.1,34.1C54.1,34.2,54.1,34.1,54.1,34.1L54.1,34.1z"/>
		</g>
		<g>
			<path class="st1" d="M55.1,34.8c2,1.5,3.4,3.8,5.3,5.6c0.9,0.9,1.8,1.7,2.7,2.6c0.5,0.5,1.1,1.1,1.1,1.8c0,0.1-0.1,0.2-0.2,0.2
				c-1.3,0.4-3.2,0.2-4.5,0c-0.2,0-0.1-0.4,0.1-0.4c0.3,0,4.2-0.1,4.1-0.3c-0.5-1.2-2.1-2-2.9-3c-0.8-1-2-1.9-2.8-2.9
				C57.1,37.2,56.2,35.9,55.1,34.8C55,34.9,55,34.8,55.1,34.8L55.1,34.8z"/>
		</g>
		<g>
			<path class="st1" d="M41.1,13.5c0,0.5,0.2,1.1-0.4,1.4c-0.1,0.1-0.2,0-0.2-0.1c0-0.2,0-0.5,0-0.7c0.1,0.1,0.1,0.1,0.2,0.2
				c-0.4,0.1-0.8,1-1.2,0.5c-0.4-0.4,0.1-1,0.4-1.3c0.3-0.3,0.6-0.5,0.8,0c0.2,0.5-0.2,1.2-0.7,1.2c-0.1,0-0.2,0-0.2-0.1
				c-0.1-0.4,0-0.8,0.2-1.2c0.2-0.4,0.2-1.2,0.1-1.6c0.1,0,0.2,0,0.3,0c0,0.7,0.3,1.3,0.3,2c0,0.4,0,0.7-0.3,0.9
				c-0.1,0-0.2-0.1-0.1-0.1c0.3-0.3,0.1-1,0-1.4C40.1,12.5,40,12,40,11.5c0-0.2,0.3-0.2,0.3,0c0.1,0.4,0.1,0.8,0,1.2
				c-0.1,0.5-0.4,1.1-0.3,1.6c-0.1,0-0.1-0.1-0.2-0.1c0.3,0,0.3-0.2,0.4-0.4c0,0,0-0.4,0-0.4c-0.2,0.2-0.4,0.4-0.5,0.6
				c0,0.1-0.3,0.7,0.2,0.4c0.1-0.1,0.2-0.2,0.3-0.3c0.1-0.1,0.2-0.2,0.3-0.2c0.1,0,0.2,0.1,0.2,0.2c0,0.2,0,0.5,0,0.7
				c-0.1,0-0.1-0.1-0.2-0.2c0.4-0.2,0.3-0.7,0.4-1.1C41,13.4,41.1,13.4,41.1,13.5L41.1,13.5z"/>
		</g>
		<g>
			<path class="st1" d="M39,14.9c-0.2,0-0.5,0-0.7,0c-0.1,0-0.1-0.1,0-0.1C38.6,14.8,38.8,14.8,39,14.9C39.1,14.8,39.1,14.9,39,14.9
				L39,14.9z"/>
		</g>
		<g>
			<path class="st1" d="M37.9,10.9c0.1,0,0.1,0,0.2,0c0,0,0.1,0,0.1,0.1c0.1,0.2,0.2,0.4,0.2,0.7c0,0.2-0.2,0.5-0.4,0.5
				c-0.1,0-0.2-0.2-0.1-0.3c0.1-0.1,0.1-0.3,0.1-0.4c0-0.2,0.1-0.4,0.1-0.5c0,0,0,0.1,0.1,0.1C38,11,37.9,11,37.9,10.9
				C37.9,10.9,37.9,10.9,37.9,10.9L37.9,10.9z"/>
		</g>
		<g>
			<path class="st1" d="M35.7,9.6c0.1,0.5,0,1.1-0.4,1.5c-0.1,0.1-0.3,0-0.2-0.2c0.1-0.5,0.3-0.9,0.5-1.4
				C35.6,9.5,35.7,9.5,35.7,9.6L35.7,9.6z"/>
		</g>
		<g>
			<path class="st1" d="M32.6,9.9c0,0.2,0,0.4-0.1,0.6c-0.1,0.2-0.3,0.4-0.6,0.4c-0.1,0-0.2-0.1-0.1-0.2c0.1-0.1,0.2-0.2,0.3-0.3
				c0.1-0.1,0.2-0.3,0.2-0.5C32.4,9.7,32.6,9.7,32.6,9.9L32.6,9.9z"/>
		</g>
		<g>
			<path class="st1" d="M30.3,7.7c0.1,0.3,0.1,0.6,0,0.9c-0.1,0.3-0.3,0.7-0.7,0.7c-0.1,0-0.2-0.2-0.1-0.3c0.4-0.4,0.5-0.8,0.6-1.3
				C30.2,7.6,30.3,7.6,30.3,7.7L30.3,7.7z"/>
		</g>
		<g>
			<path class="st1" d="M32,5.4c0.1,0.1,0.2,0.3,0.2,0.4c0,0.2-0.1,0.4-0.2,0.6c-0.1,0.1-0.2,0-0.2-0.1c0.1-0.2,0.2-0.6,0-0.8
				C31.7,5.4,31.9,5.3,32,5.4L32,5.4z"/>
		</g>
		<g>
			<path class="st1" d="M6.1,14.1C6,14.1,6,14.1,6.1,14.1C6.1,14.1,6.1,14.1,6.1,14.1L6.1,14.1z"/>
		</g>
		<g>
			<path class="st1" d="M7.9,11.8c0.4,0,0.8,0,1.1,0.3c-0.1,0-0.1,0.1-0.2,0.2c0-0.1-0.1-0.2-0.2-0.4c0-0.1,0.1-0.2,0.2-0.2
				c0.3,0.1,0.6,0.2,0.8,0.4c0.1,0.1,0,0.3-0.1,0.3c-0.2,0-0.4-0.1-0.6-0.2c-0.1-0.1-0.1-0.2,0-0.3c0.5-0.5,1.3,0.4,1,0.9
				c-0.1,0.2-0.5,0.4-0.7,0.2c-0.3-0.3-0.4-0.9-0.4-1.3c0-0.2,0.2-0.3,0.3-0.1c0.4,0.5,0.7,1.1,0.7,1.7c0,0.2-0.3,0.3-0.4,0.1
				c-0.3-0.3-1-1.7-0.1-1.7c0.4,0,0.5,0.7,0.6,1c0.1,0.7-0.1,1.3-0.5,1.9c-0.1,0.1-0.2,0-0.2-0.1c0.3-0.7,0.5-1.4,0.2-2.2
				c0-0.1-0.1-0.2-0.2-0.1c0,0.1,0.1,0.2,0.1,0.4c0.1,0.2,0.2,0.4,0.3,0.6c-0.1,0-0.2,0.1-0.4,0.1c0-0.5-0.2-1.1-0.6-1.5
				c0.1,0,0.2-0.1,0.3-0.1c0,0.3,0,0.7,0.2,1c0.1,0.1,0.2,0.1,0.2-0.1c0-0.1,0-0.2-0.1-0.2c-0.1-0.1-0.3-0.4-0.4-0.2
				c0-0.1,0-0.2,0-0.3c0.2,0.1,0.3,0.2,0.5,0.2c-0.1,0.1-0.1,0.2-0.2,0.3C9.2,12.2,9,12.1,8.7,12c0.1-0.1,0.1-0.1,0.2-0.2
				C9,12,9.1,12,9.1,12.2c0,0.1-0.1,0.2-0.2,0.1c-0.3-0.3-0.6-0.4-1-0.4C7.8,11.9,7.8,11.8,7.9,11.8L7.9,11.8z"/>
		</g>
		<g>
			<path class="st1" d="M9.6,13.3c0.3,0.5,0.7,3.2-0.5,3c-0.1,0-0.2-0.1-0.2-0.2c0-0.4,0.2-0.7,0.4-1c0.1-0.1,0.3,0,0.3,0.1
				c0.2,0.6-0.1,2-1,1.8c-0.1,0-0.2-0.1-0.2-0.3c0.1-0.4,0.5-0.6,0.9-0.6c0.2,0,0.2,0.3,0.1,0.4c-0.3,0.2-0.6,0.3-1,0.3
				c0-0.1,0-0.2,0-0.3c0.2,0,0.4,0,0.5,0c0.1,0,0.2,0.1,0.1,0.2c-0.1,0.2-0.2,0.2-0.5,0.2c-0.2,0-0.1-0.2,0-0.2
				c0.1,0,0.1-0.1,0.2-0.1c0,0.1,0.1,0.1,0.1,0.2c-0.2,0-0.3,0-0.5,0c-0.2,0-0.2-0.3,0-0.3c0.3,0,0.5-0.1,0.8-0.3
				c0.1,0.1,0.1,0.2,0.2,0.3c-0.2,0-0.5,0.1-0.6,0.4c-0.1-0.1-0.1-0.2-0.2-0.3c0.6,0.1,0.7-0.9,0.5-1.3c0.1,0,0.2,0.1,0.3,0.1
				c-0.2,0.2-0.3,0.4-0.3,0.7c-0.1-0.1-0.1-0.1-0.2-0.2C9.8,16,9.8,13.7,9.6,13.3C9.6,13.3,9.6,13.3,9.6,13.3L9.6,13.3z"/>
		</g>
		<g>
			<path class="st1" d="M9.5,16.8c-0.1,0.1-0.2,0.2-0.4,0.2c-0.2,0-0.4,0-0.7,0c-0.1,0-0.1-0.2,0-0.2C8.7,16.9,9.4,17.2,9.5,16.8
				C9.5,16.8,9.6,16.8,9.5,16.8L9.5,16.8z"/>
		</g>
		<g>
			<path class="st1" d="M8.6,17c0-0.2,0-0.1,0,0.2c-0.1,0.2-0.1,0.2-0.2,0.4c-0.1,0.1-0.2,0.1-0.2-0.1c0-0.4,0-0.8,0.2-1.1
				c0.1-0.1,0.2-0.1,0.3,0c0.3,0.5,0.1,0.9,0,1.5c0,0.2-0.3,0.2-0.3,0c0-0.3,0-0.7,0-1.1c0.1,0,0.2,0,0.3,0.1
				c-0.1,0.3-0.3,0.7-0.7,0.6c-0.4-0.1-0.2-0.8-0.1-1c0-0.2,0.3-0.2,0.3,0c0,0.6,0,1.3-0.1,1.9c-0.1,0-0.2-0.1-0.3-0.1
				c0.3-0.6,0.4-1.2,1-1.6c0.2-0.1,0.4,0.1,0.2,0.2c-0.4,0.4-0.6,1-0.9,1.4c-0.1,0.1-0.3,0-0.2-0.2C8,17.6,8,17,8.1,16.4
				c0-0.1,0.1-0.1,0.1,0c0,1.6,0.1,3.2-0.1,4.8c0,0.2-0.2,0.2-0.2,0c0-1.1,0-2.2,0.1-3.3C8,17.7,8,17.4,8,17.2
				c-0.1-0.3,0-0.4,0.2-0.4c0,0.5-0.1,0.9-0.1,1.4c-0.1,0-0.2-0.1-0.2-0.1c0.4-0.4,0.5-1,0.9-1.4c0.1,0.1,0.1,0.2,0.2,0.2
				c-0.5,0.4-0.6,1-0.9,1.5c-0.1,0.2-0.3,0.1-0.3-0.1c0-0.6,0-1.3,0-1.9c0.1,0,0.2,0,0.3,0c0,0.1,0,0.2,0,0.2
				c-0.1,0.2,0,0.2,0.2,0.1c0-0.2,0.3-0.1,0.3,0.1c0,0.3,0,0.7,0,1.1c-0.1,0-0.2,0-0.3,0c0.1-0.4,0.3-1,0.1-1.3c0.1,0,0.2,0,0.3,0
				c-0.2,0.3-0.2,0.6-0.2,1c-0.1,0-0.2,0-0.2-0.1c0.2-0.2,0.2-0.5,0.4-0.7c0.1-0.1,0.2,0,0.2,0.1C8.7,16.9,8.7,16.9,8.6,17
				C8.7,17,8.6,17,8.6,17L8.6,17z"/>
		</g>
		<g>
			<path class="st1" d="M8.5,11.2c0,0.2,0,0.4,0,0.5c0,0.1-0.1,0.1-0.1,0c0-0.5-0.2-1-0.4-1.5c0.1,0,0.2,0,0.2-0.1
				c0,0.4,0,0.8,0,1.2c0,0.2-0.3,0.2-0.3,0c0-0.3,0-0.6,0-0.9c0.1,0,0.2,0.1,0.3,0.1c-0.2,0.3-0.2,0.6-0.4,0.9
				c-0.1,0.2-0.3,0.1-0.4-0.1c-0.2-0.7,0-1.4,0.4-2c0.1-0.1,0.3,0,0.4,0.1c0.2,0.7,0.3,1.4,0.1,2c0,0.2-0.3,0.2-0.3,0
				c-0.3-0.5-0.3-1.1,0.1-1.6c0.1-0.1,0.2-0.1,0.3,0c0.3,0.5,0.1,0.9,0.1,1.5c-0.1,0-0.2,0-0.3,0c0.2-0.3-0.2-0.8-0.3-1.1
				c-0.1-0.2,0-0.4,0-0.6c0-0.6,0.1-1.2,0.6-1.6C8.7,8,8.8,8,8.9,8.1C9,8.8,8.7,9.8,8.2,10.4c-0.1,0.1-0.3,0-0.3-0.1
				c-0.1-0.7,0.2-1.4,0.4-2c0.3-0.7,0.3-1.5,0.8-2c0.1-0.1,0.2,0,0.2,0.1C9.1,7,9,7.7,8.8,8.2c-0.2,0.6-0.6,1.3-0.5,2
				c-0.1,0-0.2-0.1-0.3-0.1c0.4-0.4,0.7-1.4,0.6-1.9c0.1,0,0.2,0,0.3,0.1C8.1,8.9,8.2,10,8.5,10.7c0.1,0.3,0.2,0.6,0,0.9
				c-0.1,0.1-0.3,0.1-0.3,0c-0.1-0.4,0.1-1-0.1-1.4c0.1,0,0.2,0,0.3,0c-0.2,0.4-0.3,0.9,0,1.2c-0.1,0-0.2,0-0.4,0
				c0.1-0.6,0-1.2-0.1-1.8c0.1,0,0.3,0,0.4,0.1c-0.3,0.4-0.5,1.1-0.4,1.6c-0.1,0-0.2,0-0.4-0.1c0.2-0.3,0.2-0.6,0.4-0.9
				c0.1-0.1,0.3-0.1,0.3,0.1c0,0.3,0,0.6,0,0.9c0,0.2-0.3,0.2-0.3,0c0-0.4,0-0.8,0.1-1.2c0-0.2,0.2-0.2,0.3,0
				C8.4,10.4,8.4,10.7,8.5,11.2C8.5,11.4,8.4,11.6,8.5,11.2C8.4,11.1,8.5,11.1,8.5,11.2L8.5,11.2z"/>
		</g>
		<g>
			<path class="st1" d="M3,15c2,0.1,3.8,1.3,5.6,2c0.2,0.1,0.1,0.3-0.1,0.3c-1.9-0.4-3.2-1.9-5-2.5c0-0.1,0.1-0.1,0.1-0.2
				c0.1,0.1,0.2,0.1,0.3,0.2C4.1,14.8,4,15,3.9,15c-0.2,0-0.2,0-0.4-0.2c-0.1-0.1,0-0.3,0.1-0.2c1.8,0.5,3.2,2,5.1,2.4
				c0,0.1-0.1,0.2-0.1,0.3C6.8,16.6,5,15.4,3,15C3,15.1,3,15,3,15L3,15z"/>
		</g>
		<g>
			<path class="st1" d="M9.9,15.5c-2.3,0.1-5.6,0.5-7.7-0.7c-0.3-0.2-0.1-0.6,0.2-0.6c1.4-0.1,2.7,0.4,4.1,0.6
				c1.3,0.2,2.7,0.2,4,0.4c0.2,0,0.2,0.3,0,0.3c-1.2,0.1-2.3-0.1-3.5-0.2c-1.4-0.1-3.1-0.6-4.5-0.4c0-0.2,0.1-0.4,0.1-0.6
				c0.9,0.5,2.5,0.5,3.5,0.6c1.3,0.1,2.6,0.1,3.9,0.2C10.2,15.1,10.2,15.4,9.9,15.5L9.9,15.5z"/>
		</g>
		<g>
			<path class="st1" d="M9.3,12.4c0.2,0.4,0.2,0.8,0.3,1.2c0.1,0.4,0.2,0.7,0.3,1.1c-0.1,0-0.2,0-0.4,0c0-0.3,0-0.6,0-0.9
				c0-0.2,0.4-0.2,0.4,0c0,0.5,0.1,1.6-0.7,1.4c-0.6-0.1-0.1-1.4,0.5-1.2c0.1,0,0.1,0.2,0,0.3c-0.1,0.1-0.3,0.1-0.4,0.3
				c-0.2,0.3,0,0.4,0.1,0c0.1-0.2,0-0.5,0-0.8c0.1,0,0.2,0,0.4,0c0,0.3,0,0.6,0,0.9c0,0.2-0.4,0.2-0.4,0c0-0.4-0.1-0.8-0.2-1.2
				C9.3,13.2,9.4,12.8,9.3,12.4C9.2,12.4,9.3,12.4,9.3,12.4L9.3,12.4z"/>
		</g>
		<g>
			<path class="st1" d="M7.1,13.3C7.2,13.4,7.2,13.3,7.1,13.3c0.1,0,0.1,0.2,0.1,0.3c0,0.2-0.2,0.3-0.4,0.4
				c-0.2,0.1-0.3,0.1-0.5,0.1c-0.2,0-0.3-0.2-0.3-0.4c0-0.5,0.4-0.8,0.9-0.7c0.3,0.1,0.5,0.4,0.3,0.7C7.2,13.9,7,14,6.8,14
				c-0.3,0-0.4-0.3-0.4-0.5c0-0.1,0-0.1,0-0.1C6.6,13,7,13,7.1,13.3c0,0.1,0,0.1,0,0.2c-0.1-0.1-0.2-0.2-0.4-0.3c0,0,0,0,0,0
				c-0.1,0-0.2,0.1-0.2,0.2c0,0.1,0.1,0.2,0.1,0.3c0,0,0.1,0,0.1,0c0.1,0,0,0,0,0c-0.1,0,0,0,0,0c0,0,0,0,0,0.1
				c-0.1-0.1-0.2-0.2-0.3-0.4c0.1,0,0.2,0,0.3-0.1c0,0.1-0.1,0.2-0.1,0.2c0,0,0,0,0,0c0-0.1,0.1-0.2,0.2-0.3c-0.1,0,0,0.1,0,0
				C6.9,13.2,7.1,13.2,7.1,13.3L7.1,13.3z"/>
		</g>
		<g>
			<path class="st1" d="M7.1,12.5c0.2-0.1,1.2-0.2,1.2-0.3c0,0,0-0.1,0.1-0.1c0.7-0.1,1.3,0.5,1.5,1.1c0,0.1,0,0.2-0.1,0.2
				c-0.6-0.1-0.9-0.6-1.1-1.2c-0.1-0.1,0.1-0.3,0.2-0.1c0.2,0.2,0.4,0.5,0.5,0.7c-0.1,0-0.2,0-0.2,0.1c0.1-0.7-0.7-1.2-0.9-1.8
				c0-0.1-0.1-0.3,0-0.4c0-0.1,0.2-0.2,0.2-0.2c0.3-0.2,0.3-0.3,0-0.7c0.1,0,0.2-0.1,0.3-0.1C8.7,10.5,8.9,11.3,9,12
				c0,0.1-0.1,0.2-0.2,0.1c-0.3-0.6-0.3-1.3-0.6-1.8c0-0.1,0.1-0.1,0.1-0.1C8.7,10.7,8.7,11.5,9,12c-0.1,0-0.1,0.1-0.2,0.1
				c-0.2-0.8-0.4-1.5-0.5-2.3c0-0.1,0.2-0.3,0.3-0.1c0.2,0.2,0.3,0.5,0.4,0.8c0,0.1,0,0.1-0.1,0.2c-0.3,0.2-0.5,0.3-0.3,0.7
				c0.1,0.2,0.3,0.5,0.5,0.7c0.2,0.3,0.4,0.6,0.3,1c0,0.1-0.2,0.1-0.2,0c-0.1-0.3-0.3-0.5-0.5-0.7c0.1-0.1,0.1-0.1,0.2-0.1
				c0.2,0.4,0.4,0.9,0.9,1c0,0.1-0.1,0.1-0.1,0.2C9.5,13,8.9,12,8.4,12.4C8.2,12.7,7.5,12.4,7.1,12.5C7.1,12.6,7.1,12.5,7.1,12.5
				L7.1,12.5z"/>
		</g>
		<g>
			<path class="st1" d="M20.6,5.7c0.9,0,1.6,0.3,2.3,0.8c0.1,0.1,0,0.3-0.1,0.3c-0.6-0.2-1.3-0.5-1.8-0.9c-0.1-0.1-0.1-0.2,0-0.3
				c0.6-0.4,1.4,0.2,1.8,0.5c0.5,0.4,1.3,1.1,0.8,1.7c-0.2,0.3-0.8,0-1-0.2c-0.3-0.3-0.5-0.8-0.5-1.2c0-0.2,0.2-0.4,0.4-0.2
				c0.3,0.2,0.5,0.8,0.6,1.1c0.1,0.2-0.1,0.3-0.3,0.2c-0.3-0.3-0.4-0.7-0.7-1c-0.2-0.4-0.7-0.7-1.1-1c-0.1-0.1,0-0.3,0.1-0.3
				c1.5,0.2,2.3,2.3,2.5,3.6c0,0.2-0.2,0.2-0.3,0.1c-0.2-0.6-0.4-1.3-0.8-1.8c-0.3-0.5-0.8-1.3-1.5-1.4c0-0.1,0.1-0.2,0.1-0.3
				c0.3,0.3,0.7,0.5,1,0.9c0.3,0.3,0.4,0.8,0.7,1.1C23,7.3,23,7.3,22.9,7.4c-0.1-0.2-0.1-0.4-0.2-0.5c0-0.1-0.3-0.7-0.1-0.2
				c0.1,0.2,0.2,0.4,0.4,0.6c0.1,0.1,0.2,0.1,0.4,0c0-0.1-0.1-0.2-0.2-0.3c-0.3-0.4-1.4-1.5-1.9-1.1c0-0.1,0-0.2,0-0.3
				c0.4,0.4,1.1,0.7,1.6,0.9c0,0.1-0.1,0.2-0.1,0.3C22.1,6.2,21.4,5.8,20.6,5.7C20.6,5.7,20.6,5.7,20.6,5.7L20.6,5.7z"/>
		</g>
		<g>
			<path class="st1" d="M23.8,9.3c0.3,0.2,0.3,0.6,0.3,0.9c-0.1,0.2-0.4,0.9-0.7,0.8c0,0-0.1-0.1-0.1-0.1c0-0.2,0.2-0.4,0.3-0.6
				C23.9,10,24.1,9.6,23.8,9.3C23.8,9.3,23.8,9.3,23.8,9.3L23.8,9.3z"/>
		</g>
		<g>
			<path class="st1" d="M23.5,12.4c0.1,0.2-0.1,0.5-0.2,0.6c-0.2,0.2-0.6,0.4-0.9,0.4c-0.1,0-0.3-0.2-0.1-0.3
				c0.1-0.1,0.1-0.1,0.2-0.2c0.1-0.1,0.3-0.1,0.4-0.2c0.1-0.1,0.5-0.2,0.5-0.4C23.3,12.4,23.4,12.3,23.5,12.4L23.5,12.4z"/>
		</g>
		<g>
			<path class="st1" d="M20.7,13.8c-0.5,0.1-0.9,0.1-1.4,0.1c-0.2,0-0.2-0.3,0-0.3C19.8,13.6,20.3,13.6,20.7,13.8
				C20.8,13.8,20.8,13.8,20.7,13.8L20.7,13.8z"/>
		</g>
		<g>
			<path class="st1" d="M17.5,13.7c-0.5,0-0.9-0.3-1.3-0.6c-0.1-0.1-0.1-0.3,0.1-0.3c0.2,0.1,0.4,0.1,0.5,0.3
				c0.2,0.1,0.4,0.3,0.6,0.3C17.7,13.4,17.7,13.7,17.5,13.7L17.5,13.7z"/>
		</g>
		<g>
			<path class="st1" d="M15.4,11.7c-0.1-0.2-0.2-0.4-0.3-0.6C15,11,15,10.8,15,10.6c0-0.2,0.3-0.1,0.3,0c0,0.1,0.1,0.2,0.1,0.3
				c0,0.1,0.1,0.2,0.1,0.3c0,0.2,0,0.4,0,0.5C15.5,11.8,15.4,11.8,15.4,11.7L15.4,11.7z"/>
		</g>
		<g>
			<path class="st1" d="M14.8,9c-0.1-0.3-0.3-0.6-0.2-0.9c0-0.1,0.1-0.1,0.2,0c0.1,0.2,0.1,0.3,0.1,0.5C14.9,8.7,14.9,8.9,14.8,9
				C14.9,9.1,14.8,9.1,14.8,9L14.8,9z"/>
		</g>
		<g>
			<path class="st1" d="M24.4,7.3c0.4,0,0.7,0.6,0.6,1c0,0.1-0.2,0.1-0.2,0c0-0.2-0.1-0.3-0.1-0.5c0-0.2-0.1-0.3-0.3-0.4
				C24.3,7.4,24.4,7.3,24.4,7.3L24.4,7.3z"/>
		</g>
		<g>
			<path class="st1" d="M26.1,10.1c0,0.4,0.1,0.8,0.1,1.2c0,0.2-0.2,0.2-0.2,0C25.9,10.9,26,10.5,26.1,10.1
				C26.1,10,26.1,10,26.1,10.1L26.1,10.1z"/>
		</g>
		<g>
			<path class="st1" d="M25.3,12.9c0,0.4-0.1,0.7-0.4,1c-0.1,0.1-0.3-0.1-0.2-0.2c0.2-0.2,0.3-0.5,0.4-0.8
				C25,12.7,25.3,12.7,25.3,12.9L25.3,12.9z"/>
		</g>
		<g>
			<path class="st1" d="M23,14c0,0,0.1,0.1,0,0.2c-0.1,0.2-0.2,0.3-0.4,0.4c-0.3,0.2-0.8,0.4-1.3,0.3c-0.1,0-0.2-0.2,0-0.2
				c0.3,0,0.7-0.1,1-0.3C22.4,14.4,23.1,14.2,23,14C22.9,14,23,14,23,14L23,14z"/>
		</g>
		<g>
			<path class="st1" d="M19.8,14.9c-0.3,0-0.7,0.1-1.1,0c-0.2,0-0.2-0.3,0-0.2C19.1,14.7,19.5,14.7,19.8,14.9
				C19.9,14.8,19.9,14.9,19.8,14.9L19.8,14.9z"/>
		</g>
		<g>
			<path class="st1" d="M16.8,14.2c-0.2-0.1-0.4-0.2-0.6-0.3c-0.2-0.1-0.4-0.3-0.5-0.5c-0.1-0.1,0.1-0.2,0.2-0.1
				c0.2,0.1,0.3,0.3,0.5,0.4c0.2,0.1,0.3,0.2,0.5,0.3C17.1,14,16.9,14.2,16.8,14.2L16.8,14.2z"/>
		</g>
		<g>
			<path class="st1" d="M14.8,11.3c0.1-0.2,0-0.4-0.2-0.5c0,0,0-0.1,0,0c0.1,0.1,0.1,0.1,0.1,0.2C14.8,11.1,14.8,11.2,14.8,11.3
				C14.8,11.4,14.8,11.4,14.8,11.3L14.8,11.3z"/>
		</g>
		<g>
			<path class="st1" d="M23.2,5.3c0.2-0.1,0.4,0.1,0.6,0.2c0.1,0.1,0.2,0.2,0.3,0.4c0.1,0.1,0.2,0.2,0.3,0.3c0,0.1,0,0.2-0.1,0.1
				c-0.2,0-0.4-0.3-0.5-0.4c-0.1-0.2-0.3-0.6-0.5-0.5C23.2,5.5,23.1,5.4,23.2,5.3L23.2,5.3z"/>
		</g>
		<g>
			<path class="st1" d="M26,8.5c0,0.1,0.1,0.3,0.2,0.4c0.1,0.2,0.1,0.3,0.1,0.5c0,0.2-0.3,0.2-0.3,0C26,9.1,25.9,8.8,26,8.5
				C26,8.4,26,8.4,26,8.5L26,8.5z"/>
		</g>
		<g>
			<path class="st1" d="M26.3,12.7c0,0.3,0,0.6-0.1,0.8C26,13.8,25.8,14,25.5,14c-0.1,0-0.2-0.1-0.1-0.2c0.4-0.2,0.7-0.7,0.7-1.1
				C26.1,12.6,26.3,12.6,26.3,12.7L26.3,12.7z"/>
		</g>
		<g>
			<path class="st1" d="M24.6,15.3c0,0.4-0.5,0.6-0.8,0.8c-0.1,0-0.2,0-0.1-0.1c0.2-0.3,0.7-0.3,0.7-0.6
				C24.5,15.2,24.6,15.2,24.6,15.3L24.6,15.3z"/>
		</g>
		<g>
			<path class="st1" d="M21.4,16.2c-0.4,0-0.9,0.3-1.3,0.1c-0.1,0-0.1-0.2,0-0.2c0.2-0.1,0.5-0.1,0.7-0.1c0.2,0,0.4-0.1,0.6-0.1
				C21.5,16,21.5,16.2,21.4,16.2L21.4,16.2z"/>
		</g>
		<g>
			<path class="st1" d="M17.7,15.3c-0.2,0-0.5-0.1-0.6-0.3c-0.1-0.1,0-0.2,0-0.2c0.2-0.2,0.4,0.1,0.6,0.1
				C17.9,15,17.9,15.3,17.7,15.3L17.7,15.3z"/>
		</g>
		<g>
			<path class="st1" d="M15,13c-0.2-0.2-0.5-0.5-0.3-0.7c0-0.1,0.2-0.1,0.2,0c0.1,0.1,0.1,0.2,0.1,0.2c0.1,0.1,0.2,0.2,0.2,0.2
				C15.4,13,15.1,13.2,15,13L15,13z"/>
		</g>
		<g>
			<path class="st1" d="M14.4,10.8c0-0.4-0.2-0.7-0.2-1.1c0-0.1,0.1-0.1,0.1,0C14.4,10.1,14.5,10.4,14.4,10.8
				C14.5,10.8,14.4,10.8,14.4,10.8L14.4,10.8z"/>
		</g>
		<g>
			<path class="st1" d="M14.7,7.3c0-0.2,0.2-0.4,0.4-0.6c0.1-0.1,0.2,0,0.1,0.1c-0.1,0.1-0.3,0.3-0.4,0.5
				C14.8,7.3,14.7,7.3,14.7,7.3L14.7,7.3z"/>
		</g>
		<g>
			<path class="st1" d="M16,5.7c0.1-0.2,0.2-0.4,0.3-0.6c0.1-0.1,0.3,0,0.2,0.1C16.3,5.4,16.2,5.6,16,5.7C16,5.8,15.9,5.7,16,5.7
				L16,5.7z"/>
		</g>
		<g>
			<path class="st1" d="M18.2,4.6c0.3,0,0.8-0.1,1.1,0c0.1,0,0.1,0.2,0,0.2c-0.3,0.1-0.7,0-1.1,0C18,4.8,18,4.6,18.2,4.6L18.2,4.6z"
				/>
		</g>
		<g>
			<path class="st1" d="M23.5,7.6c0.4-0.1,0.6,0.4,0.5,0.7c0,0.1-0.3,0.1-0.3,0c0-0.2-0.1-0.4-0.2-0.5C23.4,7.8,23.4,7.6,23.5,7.6
				L23.5,7.6z"/>
		</g>
		<g>
			<path class="st1" d="M24.2,8.6c0,0.4,0,0.7,0,1.1c0,0.1-0.2,0.1-0.2,0C24.1,9.3,24.2,8.9,24.2,8.6C24.2,8.6,24.2,8.6,24.2,8.6
				L24.2,8.6z"/>
		</g>
		<g>
			<path class="st1" d="M23.6,10.9c-0.2,0.4-0.3,0.7-0.5,1.1C23.1,12,23,12,23,11.9C23.1,11.5,23.4,11.2,23.6,10.9
				C23.6,10.8,23.7,10.8,23.6,10.9L23.6,10.9z"/>
		</g>
		<g>
			<path class="st1" d="M24.3,10.9c-0.4,0.2-0.3,0.7-0.5,1c0,0.1-0.1,0-0.1-0.1C23.8,11.6,23.9,11,24.3,10.9
				C24.4,10.8,24.4,10.9,24.3,10.9L24.3,10.9z"/>
		</g>
		<g>
			<path class="st1" d="M23.3,13.4c-0.1,0.2-0.3,0.3-0.4,0.4c-0.2,0.1-0.4,0.3-0.6,0.3c-0.1,0-0.1-0.1-0.1-0.2
				c0.1-0.1,0.3-0.2,0.4-0.2c0.2-0.1,0.3-0.2,0.4-0.4C23.2,13.1,23.4,13.3,23.3,13.4L23.3,13.4z"/>
		</g>
		<g>
			<path class="st1" d="M20.2,14.5c-0.4,0-0.8,0-1.2-0.1c-0.2,0-0.2-0.3,0-0.3c0.4,0,0.8,0,1.2,0C20.4,14.1,20.4,14.5,20.2,14.5
				L20.2,14.5z"/>
		</g>
		<g>
			<path class="st1" d="M17,13.8c-0.4,0-0.9-0.2-1.1-0.6C15.8,13.1,16,13,16,13.1c0.3,0.2,0.6,0.5,1,0.6
				C17.1,13.6,17.1,13.8,17,13.8L17,13.8z"/>
		</g>
		<g>
			<path class="st1" d="M15.8,14.2c-0.2,0-0.4-0.2-0.6-0.3c-0.1-0.1,0-0.2,0.1-0.1C15.4,13.9,15.6,14.1,15.8,14.2
				C15.8,14.2,15.8,14.2,15.8,14.2L15.8,14.2z"/>
		</g>
		<g>
			<path class="st1" d="M15.3,14.5c0,0.1,0.1,0,0.2,0c0.1,0,0.1,0,0.2,0c0.1,0,0.1,0.3,0,0.3c-0.1,0-0.3,0-0.4-0.1
				c-0.1-0.1-0.1-0.2-0.1-0.3C15.2,14.5,15.2,14.4,15.3,14.5L15.3,14.5z"/>
		</g>
		<g>
			<path class="st1" d="M16.8,15.9c0.2,0.2,0.5,0.3,0.7,0.5c0.1,0.1,0,0.2-0.1,0.1C17.2,16.4,16.9,16.2,16.8,15.9
				C16.7,16,16.8,15.9,16.8,15.9L16.8,15.9z"/>
		</g>
		<g>
			<path class="st1" d="M20.6,17.5c-0.2,0-0.3,0-0.4,0.1c-0.1,0-0.2,0.1-0.3,0c-0.1,0-0.1-0.2,0-0.2c0.2-0.1,0.5-0.2,0.8-0.2
				C20.8,17.2,20.8,17.5,20.6,17.5L20.6,17.5z"/>
		</g>
		<g>
			<path class="st1" d="M16.8,17.5c-0.2-0.1-0.4-0.2-0.4-0.4c0-0.1,0.2-0.1,0.2,0c0,0.1,0.2,0.2,0.3,0.3
				C17.1,17.4,16.9,17.5,16.8,17.5L16.8,17.5z"/>
		</g>
		<g>
			<path class="st1" d="M52.5,32.5c0.3,0.3,0.5,0.7,0.5,1.1c0,0.6,0,1,0.2,1.6c0,0.1-0.1,0.1-0.1,0.1c-0.2-0.3-0.2-0.7-0.2-1
				C52.8,33.6,52.9,33,52.5,32.5C52.4,32.5,52.5,32.4,52.5,32.5L52.5,32.5z"/>
		</g>
		<g>
			<path class="st1" d="M53.3,33.9c0.2-0.1,0.2-0.4,0.2-0.5c0,0,0,0,0,0c0.5-0.2,0.7,0.1,1.2,0.3c0.5,0.2,0.9,0.5,1.3,0.8
				c0,0,0,0.1,0,0.1c-0.5,0.5-1.3-0.1-1.8-0.2c0,0,0-0.1,0-0.2c0.6,0.4,1.3,0.7,1.8,1.3c0,0.1,0,0.2-0.1,0.1c-0.1,0-0.2-0.1-0.2-0.3
				c0-0.1,0.1-0.1,0.1,0c0,0,0.1,0.1,0.1,0.1c0,0-0.1,0.1-0.1,0.1c-0.4-0.6-1.1-0.9-1.7-1.3c-0.1,0,0-0.2,0-0.1
				c0.3,0,0.6,0.2,0.9,0.3c0.2,0.1,0.4,0.1,0.6,0.1c0.4-0.1-0.4-0.5-0.5-0.6c-0.2-0.1-0.5-0.2-0.7-0.3c-0.2-0.1-0.9-0.6-1-0.2
				C53.5,33.7,53.5,33.9,53.3,33.9C53.3,34,53.3,33.9,53.3,33.9L53.3,33.9z"/>
		</g>
		<g>
			<path class="st1" d="M54,34.9C54,34.9,54,34.8,54,34.9C54,34.8,54,34.9,54,34.9L54,34.9z"/>
		</g>
		<g>
			<path class="st1" d="M53.5,35c0.1,0,0.1,0,0.2,0c0.1,0,0.1,0,0.1,0.1c0.1,0.7-0.8,1.6-1.3,1.9c-0.1,0.1-0.3,0-0.2-0.2
				c0.2-0.5,0.5-0.9,1-1.1c0.1-0.1,0.2,0,0.2,0.1c-0.1,0.7-0.7,2.6-1.7,2.2c-1-0.3,0-1,0.6-1.1c0.1,0,0.1,0,0.1,0.1
				c-0.5,1.5-2.3,0.8-3.3,0.3c-0.1-0.1,0-0.3,0.1-0.2c0.6,0.2,1.3,0.5,2,0.5c0.3,0,0.6-0.1,0.8-0.3c0-0.1,0-0.1,0-0.2
				c-0.4,0.2-0.3,0.3,0.3,0.3c0.3-0.3,0.7-1.4,0.8-1.7c0.1,0.1,0.2,0.1,0.2,0.1c-0.4,0.2-0.6,0.5-0.8,0.9c-0.1-0.1-0.1-0.1-0.2-0.2
				c0.3-0.2,0.5-0.4,0.7-0.6c0,0,0.7-0.8,0.5-0.9C53.3,35.3,53.3,35,53.5,35L53.5,35z"/>
		</g>
		<g>
			<path class="st1" d="M49.5,38.1c-1.7-0.9-3.4-1.5-5.1-2.3c-1.6-0.8-3-1.9-4.5-2.8c-1.6-0.9-2.8-2.2-4.3-3.2
				c-1.4-0.9-2.8-1.9-4.1-3c-0.7-0.6-1.9-1.9-1.9-2.9c0-0.3,0.3-0.7,0.5-1c0.5-0.7,0.8-1.5,1.2-2.2c1-1.8,3.1-4.8,5.5-4.7
				c0.2,0,0.2,0.2,0,0.3c-2.4,0.8-4.1,3-5.4,5.1c-0.3,0.5-0.4,0.9-0.6,1.4c-0.8,1.4-0.3,2.2,0.6,3.2c1.1,1.2,2.6,2,3.9,3
				c2.2,1.8,4.6,3.3,6.9,4.9C44.4,35.6,47.1,36.5,49.5,38.1C49.5,38.1,49.5,38.1,49.5,38.1L49.5,38.1z"/>
		</g>
		<g>
			<path class="st1" d="M19.2,39.9c-0.3,0.4-0.6,0.6-1,0.8c-0.4,0.2-1,0.3-1.5,0.1c-0.2-0.1-0.1-0.3,0-0.3c0.3-0.1,0.7-0.1,1.1-0.2
				c0.4-0.1,0.9-0.3,1.2-0.6C19.1,39.6,19.3,39.8,19.2,39.9L19.2,39.9z"/>
		</g>
		<g>
			<path class="st1" d="M15.6,38.6c-0.6,0.1-1.2,0.5-1.8,0.3c-0.1,0-0.1-0.2,0-0.2c0.6-0.2,1.2-0.4,1.8-0.3
				C15.7,38.5,15.7,38.6,15.6,38.6L15.6,38.6z"/>
		</g>
		<g>
			<path class="st1" d="M14.9,34.3c-0.2,0.1-0.3,0.3-0.5,0.5c-0.1,0.1-0.2,0.2-0.4,0.2c-0.3,0.1-0.6,0.2-0.8,0.1
				c-0.1,0-0.1-0.2,0-0.2c0.3-0.1,0.6-0.1,0.9-0.2C14.4,34.5,14.5,34.2,14.9,34.3C14.9,34.2,14.9,34.3,14.9,34.3L14.9,34.3z"/>
		</g>
		<g>
			<path class="st1" d="M21.1,32c-0.1,0-0.3,0.2-0.3,0.3c-0.1,0.1-0.1,0.3-0.2,0.4c-0.1,0.2-0.4,0.6-0.7,0.6c-0.1,0-0.2-0.2-0.1-0.3
				c0.1-0.1,0.2-0.2,0.3-0.3c0.1-0.2,0.2-0.3,0.3-0.4c0.1-0.1,0.2-0.2,0.4-0.3C20.8,31.9,21,32,21.1,32C21.1,31.9,21.1,32,21.1,32
				L21.1,32z"/>
		</g>
		<g>
			<path class="st1" d="M20.3,28.5c-0.1-0.1-0.1-0.1-0.1-0.2c0.1,0,0.2,0,0.3,0c-0.1,0.3-0.2,0.6-0.5,0.8c-0.2,0.3-0.4,0.5-0.7,0.7
				c-0.1,0.1-0.3-0.1-0.2-0.2c0.1-0.2,0.3-0.4,0.5-0.6c0.2-0.2,0.4-0.5,0.6-0.8c0.1-0.1,0.3,0,0.3,0.1
				C20.4,28.4,20.4,28.4,20.3,28.5C20.3,28.5,20.3,28.5,20.3,28.5L20.3,28.5z"/>
		</g>
		<g>
			<path class="st1" d="M21.2,36c-0.5,0.7-0.8,1.7-1.8,1.7c-0.2,0-0.2-0.2-0.1-0.3C20,37.1,20.5,36.4,21.2,36
				C21.2,36,21.2,36,21.2,36L21.2,36z"/>
		</g>
		<g>
			<path class="st1" d="M24.8,40.2c0.1,0.8-0.8,1.5-1.5,1.7c-0.2,0.1-0.2-0.2-0.1-0.3c0.5-0.5,1.3-0.7,1.5-1.5
				C24.7,40,24.8,40.1,24.8,40.2L24.8,40.2z"/>
		</g>
		<g>
			<path class="st1" d="M26.7,36c0.1,0.4-0.1,0.6-0.2,1c-0.2,0.3-0.4,0.4-0.7,0.6c-0.1,0.1-0.3-0.1-0.2-0.2c0.1-0.2,0.3-0.3,0.5-0.5
				c0.1-0.1,0.2-0.3,0.2-0.4c0-0.1,0.1-0.1,0.2-0.2c0-0.1,0.1-0.2,0.1-0.2C26.5,35.9,26.7,35.9,26.7,36L26.7,36z"/>
		</g>
		<g>
			<path class="st1" d="M32.4,38.2c-0.1,0-0.1,0.1-0.1,0.1c0,0.1-0.1,0.2-0.1,0.3c-0.1,0.2-0.3,0.4-0.5,0.5c-0.2,0-0.3-0.2-0.2-0.3
				c0.1-0.1,0.1-0.2,0.1-0.3c0.1-0.1,0.1-0.2,0.2-0.3c0.1-0.2,0.3-0.3,0.6-0.3C32.5,38,32.5,38.2,32.4,38.2L32.4,38.2z"/>
		</g>
		<g>
			<path class="st1" d="M29.7,37.8c0,0.2,0,0.4-0.1,0.6c-0.1,0.2-0.2,0.3-0.3,0.4c-0.1,0.1-0.3-0.1-0.2-0.2c0.1-0.1,0.2-0.2,0.2-0.4
				c0.1-0.1,0.1-0.3,0.2-0.5C29.5,37.7,29.7,37.7,29.7,37.8L29.7,37.8z"/>
		</g>
		<g>
			<path class="st1" d="M32,34.3c-0.2,0.3-0.1,0.7-0.2,1c-0.1,0.3-0.3,0.5-0.6,0.5c-0.2,0-0.2-0.2-0.1-0.3c0.2-0.2,0.3-0.5,0.4-0.7
				c0.1-0.2,0.2-0.4,0.4-0.6C32,34.1,32.1,34.2,32,34.3L32,34.3z"/>
		</g>
		<g>
			<path class="st1" d="M37,35.1c0,0-0.1-0.1-0.2-0.1c0,0,0.1-0.1,0.1-0.1c0.1,0.3-0.1,0.7-0.1,1c-0.1,0.3-0.3,0.7-0.7,0.8
				c-0.1,0-0.3-0.1-0.2-0.2c0.2-0.3,0.4-0.5,0.5-0.8c0.1-0.2,0.1-0.6,0.4-0.8c0,0,0.1,0,0.1,0.1C37,34.9,37,35,37,35.1
				C37.1,35.1,37.1,35.1,37,35.1L37,35.1z"/>
		</g>
		<g>
			<path class="st1" d="M36.7,38.9c0,0,0-0.1,0-0.1c0.1,0,0.1-0.1,0.2-0.1c0.2,0.5-0.3,1.3-0.7,1.6c-0.1,0.1-0.3,0-0.3-0.2
				c0.1-0.3,0.3-0.5,0.4-0.7c0.2-0.2,0.2-0.5,0.4-0.7c0.1-0.1,0.3,0,0.2,0.1C36.8,38.9,36.8,38.9,36.7,38.9
				C36.8,39,36.7,39,36.7,38.9L36.7,38.9z"/>
		</g>
		<g>
			<path class="st1" d="M41.2,39.8c0,0.5-0.3,1-0.8,1.1c-0.1,0-0.1-0.1-0.1-0.2c0.2-0.1,0.3-0.3,0.4-0.4c0.1-0.2,0.3-0.4,0.3-0.6
				C41.1,39.7,41.2,39.7,41.2,39.8L41.2,39.8z"/>
		</g>
		<g>
			<path class="st1" d="M42.5,34.5c0.1,0.2,0,0.4-0.1,0.6c-0.1,0.2-0.3,0.4-0.5,0.6c-0.1,0.1-0.3,0-0.3-0.2c0.1-0.2,0.1-0.4,0.3-0.5
				c0.1-0.1,0.3-0.3,0.4-0.5C42.3,34.4,42.4,34.4,42.5,34.5L42.5,34.5z"/>
		</g>
		<g>
			<path class="st1" d="M39.3,32.6c0.1,0.5-0.1,1.1-0.6,1.2c-0.1,0-0.2-0.1-0.1-0.2c0.3-0.2,0.5-0.6,0.6-1
				C39.2,32.6,39.3,32.6,39.3,32.6L39.3,32.6z"/>
		</g>
		<g>
			<path class="st1" d="M35.3,29.7c-0.1,0-0.1,0.2-0.1,0.3c0,0.1-0.1,0.2-0.1,0.3c-0.2,0.2-0.4,0.4-0.6,0.4c-0.2,0-0.2-0.3,0-0.3
				c0.2,0,0.3-0.3,0.4-0.5c0.1-0.1,0.1-0.2,0.2-0.2C35.1,29.7,35.2,29.7,35.3,29.7C35.3,29.7,35.3,29.7,35.3,29.7L35.3,29.7z"/>
		</g>
		<g>
			<path class="st1" d="M32,27.3C32,27.3,32.1,27.3,32,27.3C32,27.3,32,27.4,32,27.3c-0.1,0.2-0.1,0.2-0.1,0.3
				c-0.1,0.2-0.3,0.3-0.4,0.3c-0.1,0-0.2-0.1-0.1-0.2c0.2-0.2,0.3-0.8,0.6-0.8C32.2,27,32.2,27.3,32,27.3L32,27.3z"/>
		</g>
		<g>
			<path class="st1" d="M27.9,27.8c0,0.2,0,0.5,0,0.7c-0.1,0.3-0.3,0.5-0.6,0.6c-0.1,0.1-0.3-0.1-0.1-0.2c0.3-0.3,0.5-0.7,0.5-1.1
				C27.6,27.6,27.8,27.6,27.9,27.8L27.9,27.8z"/>
		</g>
		<g>
			<path class="st1" d="M25.2,32.3c-0.1,0.1-0.1,0.3-0.2,0.4c-0.1,0.2-0.2,0.3-0.4,0.3c-0.1,0-0.1-0.1-0.1-0.1
				c0.2-0.2,0.3-0.5,0.5-0.7C25.1,32.1,25.3,32.2,25.2,32.3L25.2,32.3z"/>
		</g>
		<g>
			<path class="st1" d="M45.5,36.7c0.5,0.4,0.1,1.1-0.3,1.3C45,38.1,44.9,38,45,37.9C45.2,37.6,45.7,37.1,45.5,36.7
				C45.4,36.7,45.5,36.7,45.5,36.7L45.5,36.7z"/>
		</g>
		<g>
			<path class="st1" d="M45.8,40.8c0.1,0.5-0.3,1.1-0.7,1.3c-0.1,0.1-0.2-0.1-0.1-0.2C45.1,41.5,45.5,41.2,45.8,40.8
				C45.7,40.7,45.7,40.7,45.8,40.8L45.8,40.8z"/>
		</g>
		<g>
			<path class="st1" d="M48.7,42.8c-0.2,0.7-1.2,2.5-2.1,1.8c-0.2-0.1,0-0.3,0.1-0.3c0.4,0.1,0.8-0.2,1-0.5
				C48.1,43.6,48.4,43.2,48.7,42.8C48.6,42.7,48.7,42.7,48.7,42.8L48.7,42.8z"/>
		</g>
		<g>
			<path class="st1" d="M50.6,43.7c0.4,0,0.4,0.3,0.3,0.6c-0.2,0.4-0.6,0.6-1,0.8c-0.2,0.1-0.2-0.2-0.1-0.3c0.2-0.1,0.4-0.3,0.6-0.5
				C50.5,44.2,50.8,43.9,50.6,43.7C50.5,43.7,50.5,43.7,50.6,43.7L50.6,43.7z"/>
		</g>
		<g>
			<path class="st1" d="M53.5,41.5c-0.2,0.4-0.2,1.3-0.7,1.5c-0.1,0-0.2-0.1-0.1-0.2c0.2-0.2,0.3-0.5,0.4-0.7
				C53.1,41.9,53.2,41.6,53.5,41.5C53.5,41.5,53.5,41.5,53.5,41.5L53.5,41.5z"/>
		</g>
		<g>
			<path class="st1" d="M53.2,37.1c-0.4,0.1-0.4,0.6-0.5,0.9c-0.1,0.2-0.1,0.7-0.3,0.8c-0.1,0-0.1,0-0.2-0.1c0-0.1,0.1-0.3,0.1-0.4
				c0.1-0.2,0.1-0.4,0.2-0.6C52.7,37.4,52.9,37.1,53.2,37.1C53.2,37.1,53.3,37.1,53.2,37.1L53.2,37.1z"/>
		</g>
		<g>
			<path class="st1" d="M55.4,35.6c0.1,0.4,0,0.8-0.1,1.2c-0.1,0.4-0.2,1-0.4,1.3c-0.1,0.1-0.2,0.1-0.3,0c0-0.4,0.1-0.7,0.3-1.1
				C55.1,36.5,55.2,36.1,55.4,35.6C55.3,35.5,55.4,35.5,55.4,35.6L55.4,35.6z"/>
		</g>
		<g>
			<path class="st1" d="M57.4,40.8c0,0.2-0.3,0.3-0.4,0.5c-0.1,0.3-0.2,0.6-0.3,0.9c0,0.1-0.2,0.1-0.3,0c0-0.3,0-0.6,0.2-0.8
				c0.1-0.1,0.1-0.2,0.2-0.3C57,40.9,57.3,40.9,57.4,40.8C57.3,40.7,57.4,40.7,57.4,40.8L57.4,40.8z"/>
		</g>
		<g>
			<path class="st1" d="M55.7,44.4c-0.1,0.2-0.3,0.4-0.4,0.5c-0.2,0.1-0.5,0.2-0.7,0.1c-0.1,0-0.1-0.2,0-0.2c0.1,0,0.2-0.1,0.3-0.1
				c0.1,0,0.2-0.1,0.3-0.1C55.3,44.6,55.5,44.5,55.7,44.4C55.7,44.4,55.7,44.4,55.7,44.4L55.7,44.4z"/>
		</g>
		<g>
			<path class="st1" d="M12.3,25.4c0.1-0.2,0.2-0.2,0.3-0.3c0.1,0,0.1,0,0.2,0.1c0.2,0.4-0.2,0.8-0.5,1c-0.4,0.3-0.8,0.5-1.2,0.6
				c-0.1,0-0.3-0.2-0.1-0.2c0.3-0.2,0.5-0.4,0.8-0.5c0.3-0.2,0.7-0.4,0.8-0.8c0,0,0.1,0.1,0.1,0.1C12.5,25.3,12.4,25.3,12.3,25.4
				C12.3,25.4,12.3,25.4,12.3,25.4L12.3,25.4z"/>
		</g>
		<g>
			<path class="st1" d="M12,29.9c0.1,0,0.1,0,0.2,0c0,0,0.1,0,0.1,0.1c-0.3,0.4-0.8,0.6-1.3,0.7c-0.1,0-0.2-0.1-0.1-0.2
				c0.4-0.2,0.9-0.4,1.3-0.6c0,0,0,0.1,0,0.1C12.1,30,12,30,12,29.9C11.9,30,11.9,29.9,12,29.9L12,29.9z"/>
		</g>
		<g>
			<path class="st1" d="M25.7,23.1c0-0.1,0-0.1,0-0.2c0,0,0.1,0,0.1,0c0,0.6-0.4,1.2-0.9,1.7c-0.1,0.1-0.3-0.1-0.2-0.2
				c0.4-0.5,0.7-1,1-1.5c0-0.1,0.1,0,0.1,0.1C25.8,23,25.8,23.1,25.7,23.1C25.8,23.1,25.7,23.1,25.7,23.1L25.7,23.1z"/>
		</g>
		<g>
			<path class="st1" d="M29.3,23.4c0,0.6-0.1,1.5-0.7,1.8c-0.1,0-0.2-0.1-0.1-0.1C28.9,24.6,29.2,24,29.3,23.4
				C29.3,23.4,29.3,23.4,29.3,23.4L29.3,23.4z"/>
		</g>
		<g>
			<path class="st1" d="M31.7,18.2c-0.1,0.1-0.2,0.3-0.2,0.4c-0.1,0.2-0.2,0.3-0.3,0.5c-0.2,0.3-0.3,0.5-0.5,0.7
				c-0.1,0.1-0.2-0.1-0.2-0.2c0.2-0.3,0.4-0.6,0.6-0.8c0.1-0.1,0.2-0.2,0.3-0.3C31.5,18.3,31.6,18.2,31.7,18.2
				C31.7,18.1,31.7,18.2,31.7,18.2L31.7,18.2z"/>
		</g>
		<g>
			<path class="st1" d="M28.4,15.6c-0.1,0-0.2-0.1-0.2-0.2c0.1,0,0.1,0,0.2,0c-0.1,0.1-0.1,0.2-0.2,0.3c-0.1,0.1-0.2,0.3-0.3,0.4
				c-0.2,0.2-0.3,0.5-0.6,0.6c-0.1,0.1-0.2-0.1-0.2-0.2c0.1-0.3,0.3-0.4,0.5-0.7c0.1-0.1,0.2-0.2,0.3-0.3c0.1-0.1,0.2-0.2,0.4-0.2
				c0.1,0,0.1,0,0.1,0.1C28.3,15.5,28.4,15.5,28.4,15.6C28.5,15.6,28.5,15.6,28.4,15.6L28.4,15.6z"/>
		</g>
		<g>
			<path class="st1" d="M25.7,17c-0.1,0.2-0.2,0.4-0.4,0.5c-0.1,0.1-0.3,0.2-0.4,0.3c-0.1,0.1-0.2-0.1-0.2-0.2
				c0.1-0.1,0.2-0.3,0.3-0.4c0.2-0.2,0.3-0.3,0.4-0.5C25.5,16.7,25.8,16.8,25.7,17L25.7,17z"/>
		</g>
		<g>
			<path class="st1" d="M16.6,18.1c-0.3,0.2-0.5,0.5-0.8,0.6c-0.3,0.2-0.6,0.3-1,0.3c-0.2,0-0.2-0.3,0-0.3
				C15.4,18.7,15.9,18.2,16.6,18.1C16.6,18,16.6,18.1,16.6,18.1L16.6,18.1z"/>
		</g>
		<g>
			<path class="st1" d="M11.2,18.7c-0.5,0.1-1.1,0.6-1.6,0.4c-0.1,0-0.1-0.2,0-0.3C10.1,18.7,10.7,18.5,11.2,18.7
				C11.3,18.6,11.3,18.7,11.2,18.7L11.2,18.7z"/>
		</g>
		<g>
			<path class="st1" d="M63.2,44.8c0.1-0.2,0.1-0.2,0.4-0.2c0.1,0,0.2,0.1,0.1,0.2c-3.1,2.6-8.5,1.2-12.1,1c-0.2,0-0.2-0.4,0-0.4
				c1.2,0,2.9-0.3,4,0.3c0.1,0.1,0.1,0.3,0,0.3c-1.4,0.3-2.8,0.1-4.2,0.3c-1.5,0.2-3.1,0.2-4.6,0.4c-1.4,0.2-2.7,0.4-4.1,0.6
				c-1.6,0.2-3.3,0-4.9,0.2c0-0.2,0-0.3,0-0.5c0.6,0,0.8,0,1.3,0.3c0.1,0.1,0.1,0.3,0,0.4c-0.4,0.2-1.8,0.5-1.9-0.2
				c0-0.1,0.1-0.3,0.2-0.3c0,0,0.1,0,0.2,0c0.1,0,0.2,0,0.2,0.1c0.2,0.5,0,0.8-0.5,1c-0.1,0-0.2,0-0.2-0.1c-0.3-0.4-0.1-0.7,0-1.2
				c0.1,0.1,0.2,0.1,0.3,0.2c-0.7,0.7-0.4,0.5-1,1c-0.1,0.1-0.3,0-0.2-0.2c0.3-0.4,0.6-0.8,0.9-1.1c0.1-0.2,0.4,0,0.3,0.2
				c-0.1,0.5,2,0.3,0.3,0.4c-0.3,0-0.3-0.4,0-0.5c1.6-0.2,3.3-0.1,4.9-0.2c1.8-0.2,3.6-0.4,5.4-0.6c1.8-0.2,3.5-0.3,5.3-0.3
				c0.2,0,2-0.1,0.7,0c-0.8,0-1.5,0-2.3,0c0-0.1,0-0.3,0-0.4c2.1,0.1,4.1,0.2,6.2,0.3C59.3,45.7,62.1,46,63.2,44.8
				C63.2,44.9,63.2,44.8,63.2,44.8L63.2,44.8z"/>
		</g>
		<g>
			<path class="st1" d="M35.8,46.4c0.2,0.4,0.5,0.8,0.5,1.3c0,0.1-0.1,0.1-0.1,0.2c-0.8,0.1-1.4-0.9-1.7-1.5
				c-0.1-0.2,0.2-0.4,0.3-0.2c0.3,0.5,0.8,0.9,0.9,1.5c0,0.1-0.1,0.2-0.2,0.2c-0.3-0.1-0.4-0.4-0.5-0.7c-0.1-0.1,0.1-0.2,0.1-0.1
				c0.1,0.1,0.3,0.4,0.5,0.4c-0.1,0.1-0.2,0.1-0.2,0.2c0-0.5-0.6-0.9-0.8-1.3c0.1-0.1,0.2-0.1,0.3-0.2c0.2,0.5,0.7,1.5,1.4,1.4
				c0,0.1-0.1,0.1-0.1,0.2c0-0.4-0.3-0.8-0.5-1.2C35.4,46.4,35.7,46.2,35.8,46.4L35.8,46.4z"/>
		</g>
		<g>
			<path class="st1" d="M34.6,46.5c0.2,0.2,0.5,0.5,0.7,0.7c0.1,0.1-0.1,0.3-0.2,0.2c-0.3-0.2-0.5-0.5-0.7-0.7
				C34.1,46.6,34.4,46.3,34.6,46.5L34.6,46.5z"/>
		</g>
		<g>
			<path class="st1" d="M36.2,47.2c0-0.1,0-0.1,0-0.2c0-0.1,0.1-0.1,0.1,0c0.1,0.4,0.2,1-0.1,1.2c-0.3,0.2-0.6-0.2-0.7-0.4
				c-0.1-0.3-0.1-0.8,0.3-0.8c0.2,0,0.5,0.3,0.6,0.5c0.1,0.2,0.2,0.5,0.2,0.8c0,0.2-0.2,0.3-0.3,0.2c-0.1,0-0.2-0.1-0.3-0.1
				c-0.1-0.1-0.1-0.2,0-0.3c0.1,0,0.2-0.1,0.3-0.1c-0.1,0.1-0.1,0.2-0.2,0.2c0-0.3-0.1-0.7-0.4-0.9c0.1,0,0.1,0,0.2,0
				c-0.1,0,0.1,0.4,0.2,0.4c0,0,0,0,0,0c0,0,0.1-0.1,0.1-0.2c0.1-0.2,0.1-0.5,0.1-0.7c0-0.1,0.1,0,0.1,0
				C36.2,47.1,36.2,47.2,36.2,47.2C36.2,47.2,36.2,47.2,36.2,47.2L36.2,47.2z"/>
		</g>
		<g>
			<path class="st1" d="M34.9,47.2c0-0.2,0-0.3,0.1-0.4c0-0.1,0.2-0.1,0.2,0c0.3,0.5,0.4,0.9,0.6,1.4c-0.1,0-0.3,0-0.4,0
				c0-0.4-0.3-0.7-0.3-1.1c0-0.1,0.1-0.2,0.2-0.2c0.4-0.1,0.8,0.1,1,0.4c0.2,0.3,0.5,0.7,0.4,1.1c0,0.1-0.2,0.2-0.3,0.1
				c-0.3-0.3-0.4-1.3-1-1.2c0.1-0.1,0.1-0.1,0.2-0.2c0,0.4,0.3,0.7,0.3,1.1c0,0.3-0.4,0.3-0.4,0c-0.1-0.5-0.3-0.9-0.4-1.4
				c0.1,0,0.1,0,0.2,0.1C35.1,47,35,47.1,34.9,47.2C35,47.2,34.9,47.2,34.9,47.2L34.9,47.2z"/>
		</g>
		<g>
			<path class="st1" d="M35.1,46.6c0.4,0,0.2,0,0.5,0.2c0,0,0,0,0,0c-0.8,0.3-1.5-0.2-2.3-0.3c-0.1,0-0.1-0.2,0-0.2
				c0.6,0,0.8,0,1.3,0.4c0.1,0.1,0.1,0.3-0.1,0.3c-1.3,0.2-7.2-2.2-7.6-0.1c-0.1,0-0.3-0.1-0.4-0.1c0.2-0.5,0.4-0.7,0.8-1
				c0.1-0.1,0.2,0,0.3,0c0.6,0.8-0.1,1.8-1,2c-0.1,0-0.2-0.1-0.3-0.2c-0.2-0.8,0.9-1.4,1.3-1.8c0.1-0.1,0.4,0,0.4,0.2
				c-0.1,0.8-0.5,1.7-1.4,1.4c-0.1,0-0.2-0.2-0.2-0.3c0.1-0.4,0.3-0.8,0.6-1c0.1,0,0.2,0,0.2,0c0.1,0.1,0.1,0.1,0.2,0.2
				c0.1,0.1,0.1,0.2,0.1,0.3c-0.1,0.4-0.3,0.5-0.7,0.7c-0.2,0-0.3-0.1-0.3-0.3c0.3-0.8,3-1.9,3.1-0.6c0,0.1,0,0.1-0.1,0.2
				c-0.9,0.5-2.4,0.5-3.5,0.6c-0.2,0-0.2-0.3,0-0.3c0.9-0.1,1.8-0.2,2.7-0.4c0.5-0.1-0.5-0.2-0.7-0.1c-0.4,0.1-0.7,0.3-1,0.5
				c-0.5,0.5-0.4,0.2,0.3-0.9c0.1,0.1,0.3,0.1,0.4,0.2c-0.2,0.2-1.1,1-1,0.7c-0.1,0.3-0.5,0.1-0.4-0.1c0.3-1.6,2.2-1,3.4-0.9
				c0.7,0,2.1,0.3,2.8,0.5c0.4,0.1,0.8,0.2,1.1,0.3C33.3,46.4,35,46.7,35.1,46.6C35.1,46.7,35.1,46.6,35.1,46.6L35.1,46.6z"/>
		</g>
		<g>
			<path class="st1" d="M25.7,45.3c0.3,0.6,0.8,1.4,0.7,2c0,0.1-0.1,0.1-0.2,0c-0.3-0.2-0.4-0.5-0.5-0.8c-0.4-0.5-0.4-0.4-0.1,0.2
				c0.1,0.2,0.2,0.4,0.3,0.7c-0.1,0-0.2,0.1-0.3,0.1c-0.2-0.8-1-1.1-1.4-1.7c-0.1-0.1,0.1-0.3,0.2-0.3c0.8,0.3,1.5,1.1,1.8,1.9
				c0.1,0.2-0.1,0.3-0.2,0.3c-0.4-0.1-0.6-0.2-0.9-0.6c-0.5-0.6-0.8-1.1-1.7-1.4c0.1-0.1,0.1-0.3,0.2-0.4c0.8,0.4,1.7,0.7,2,1.6
				c0.1,0.2-0.2,0.4-0.4,0.3c-0.9-0.5-1.4-1.4-2.4-1.8c-0.9-0.4-1.8-1-2.5-1.6c-0.2-0.1,0.1-0.4,0.2-0.3c0.9,0.5,1.9,1,2.8,1.5
				c0.8,0.5,1.3,1.2,2.1,1.7c-0.1,0.1-0.2,0.2-0.4,0.3c-0.3-0.7-1.2-1-1.8-1.3c-0.2-0.1-0.1-0.5,0.2-0.4c0.4,0.2,0.8,0.3,1.1,0.6
				c0.5,0.5,0.8,1.3,1.5,1.4c-0.1,0.1-0.2,0.2-0.2,0.3c-0.3-0.7-0.9-1.4-1.6-1.7c0.1-0.1,0.2-0.2,0.2-0.3c0.4,0.7,1.1,1,1.3,1.9
				c0,0.2-0.2,0.3-0.3,0.1c-0.2-0.5-0.6-1.1-0.5-1.7c0-0.1,0.1-0.1,0.2-0.1c0.4,0.3,0.6,0.6,0.8,1.1c-0.1-0.4-0.3-1-0.5-1.5
				C25.5,45.3,25.7,45.2,25.7,45.3L25.7,45.3z"/>
		</g>
		<g>
			<path class="st1" d="M36.4,54.3c0.1,0.2,0,1.4-0.5,1.2c-0.5-0.2-0.3-1-0.3-1.4c0-0.2,0.4-0.2,0.4,0c0,0.4-0.1,0.6-0.5,0.9
				c-0.1,0.1-0.2,0-0.3-0.1c-0.4-0.6,0.3-1.4,0.8-1.7c0.2-0.1,0.4,0.1,0.4,0.3c-0.1,0.5-0.3,1-0.4,1.4c-0.1,0.3-0.5,0.6-0.5,0.9
				c-0.1-0.1-0.2-0.2-0.3-0.3c1.2-0.4,0.7-3.3,0.9-4.2c0-0.2,0.3-0.2,0.4,0c0.2,1.1,0.3,4.2-1.1,4.7c-0.1,0.1-0.3-0.1-0.3-0.3
				c0.1-0.3,0.2-0.6,0.4-0.9c0.3-0.5,0.4-1.1,0.6-1.7c0.1,0.1,0.2,0.2,0.4,0.3c-0.3,0.2-0.9,0.7-0.7,1.1c-0.1,0-0.2-0.1-0.3-0.1
				c0.1-0.2,0.2-0.3,0.3-0.5c0.1,0,0.2,0,0.4,0c0,0.2-0.1,0.4-0.1,0.7c-0.1,0.2,0,0.2,0.2,0.1c0,0,0.1-0.5,0.1-0.6
				C36.3,54.2,36.4,54.2,36.4,54.3L36.4,54.3z"/>
		</g>
		<g>
			<path class="st1" d="M26.5,53.6C27,54.4,26.8,54.5,26.5,53.6c-0.3-0.6-0.6-1.2-0.7-1.9c0-0.2,0.1-0.3,0.3-0.2
				c0.3,0.2,0.2,0.2,0.3,0.5c0,0.2-0.4,0.3-0.4,0c-0.1-1-0.2-2-0.3-3c0-1,0.4-1.9,0.4-2.9c0-0.3,0.4-0.2,0.4,0c0,0.1,0,0.1-0.1,0.2
				c-0.1,0.1-0.1,0.1-0.2,0c-0.1-0.1-0.1-0.1-0.1-0.2c0-0.3,0.4-0.2,0.4,0c0,0.8-0.1,1.2-0.3,2c-0.4,1,0.1,2.8,0.2,3.8
				c-0.1,0-0.3,0-0.4,0c0-0.1,0-0.1-0.1-0.2c0.1-0.1,0.2-0.1,0.3-0.2c0.2,1.2,1.1,2.1,1.3,3.2c0,0.2-0.2,0.3-0.3,0.2
				C26.8,54.6,26.6,54.1,26.5,53.6C26.5,53.6,26.5,53.6,26.5,53.6L26.5,53.6z"/>
		</g>
		<g>
			<path class="st1" d="M24.9,46.7c0.6,0.3,0.7,0.9,1.1,1.4c-0.1,0-0.1,0-0.2,0c0-0.4-0.2-0.9,0.2-1.1c0,0,0.1,0,0.1,0
				c0.4,0.2,0.2,0.6,0.2,1c-0.1,0-0.2-0.1-0.2-0.1c0.2-0.3,0.2-0.9,0.6-0.9c0.1,0,0.2,0,0.2,0.2c0,0.4-0.3,0.7-0.7,0.8
				c-0.1,0-0.2-0.1-0.1-0.2c0.2-0.1,0.4-0.4,0.5-0.6c0,0.1,0.1,0.1,0.1,0.2c-0.2,0-0.4,0.6-0.4,0.8c-0.1,0.1-0.2,0.1-0.2-0.1
				c0-0.1,0-0.3,0.1-0.4c0-0.1,0-0.2-0.1-0.3c0,0.1-0.1,0.2-0.1,0.2c0,0.2,0,0.4,0,0.6c0,0.1-0.1,0.1-0.2,0
				C25.5,47.7,25.4,47.1,24.9,46.7C24.8,46.7,24.9,46.6,24.9,46.7L24.9,46.7z"/>
		</g>
		<g>
			<path class="st1" d="M7.4,17.3c0.2,0,0.6,0.2,0.7-0.1c0-0.1,0.1-0.2,0.1-0.3c0.1-0.1,0.4-0.2,0.5,0c0.3,0.4-0.3,1.1-0.5,1.3
				c0,0-0.1,0-0.2,0c-0.3-0.4-0.1-0.7,0.2-1.1c0,0,0.1-0.1,0.2,0c0.5,0.4,0.3,1.7-0.3,2C8,19,7.9,18.9,8,18.8
				c0.4-0.2,0.6-1.3,0.2-1.6c0.1,0,0.1,0,0.2,0c-0.2,0.2-0.4,0.4-0.2,0.7c-0.1,0-0.1,0-0.2,0c0.1-0.1,0.2-0.3,0.3-0.5
				c0.1-0.1,0.1-0.2,0.2-0.3c0.1-0.3-0.1-0.3-0.2,0c-0.1,0.1-0.1,0.3-0.3,0.4C7.8,17.6,7.6,17.4,7.4,17.3
				C7.3,17.3,7.3,17.3,7.4,17.3L7.4,17.3z"/>
		</g>
		<g>
			<path class="st1" d="M7.3,16.4c0.1,0.3,0.5,0.7,0.4,1.1c0,0.2-0.1,0.4-0.3,0.4c-0.4,0-0.7-0.6-0.9-0.9c-0.2-0.4,0.4-0.6,0.7-0.3
				c0.3,0.3,0.7,1,0.6,1.4c0,0.1-0.2,0.1-0.2,0c-0.1-0.3-0.2-0.6-0.3-0.9C7.1,17,7,16.9,6.8,16.8c-0.1-0.1-0.1,0-0.2-0.1
				c0,0.1,0,0.1,0.1,0.2c0.1,0.3,0.3,0.6,0.5,0.7c0.2,0.2,0.1-0.5,0.1-0.5C7.3,16.9,7.2,16.7,7.3,16.4C7.2,16.4,7.3,16.4,7.3,16.4
				L7.3,16.4z"/>
		</g>
		<g>
			<path class="st1" d="M7.3,16.7c0.4,0.8,0.7,1.6,0.9,2.5c0,0.1-0.1,0.2-0.2,0.1c-0.3-0.4-0.5-0.8-0.6-1.2
				c-0.2-0.6-0.2-1.3-0.6-1.8c0.1,0,0.2-0.1,0.2-0.1c0.2,0.7,0.5,1.4,0.7,2.1c0.2,0.8,0.3,1.5,0.4,2.3c0,0.1-0.2,0.2-0.2,0.1
				c-0.2-0.7-0.3-1.3-0.5-2c-0.2-0.8-0.5-1.6-0.7-2.4c0-0.2,0.2-0.2,0.3-0.1c0.3,0.5,0.3,1.1,0.5,1.6c0,0.2,0.1,0.4,0.2,0.5
				c0-0.1,0.4,1.2,0.2,0.4C7.7,18,7.5,17.4,7.3,16.7C7.2,16.7,7.2,16.7,7.3,16.7L7.3,16.7z"/>
		</g>
		<g>
			<path class="st1" d="M30.4,22.5c0.2,0.9,0.6,1.7,0.7,2.7c0,0.2-0.2,0.2-0.3,0c-0.1-0.5-0.4-1.1-0.3-1.6c0.1-0.8,0.4-2.7-0.8,0.2
				c-0.1,0.1-0.3,0.1-0.3,0c0.1-0.7,0.2-1.3,0.6-1.8c0.1-0.1,0.2-0.1,0.2,0.1c0,0.5,0,0.6,0,1.1c0.5-2.6,0.7,3.6,0.6,2.1
				c0-0.2,0.2-0.3,0.3-0.1c0.2,0.5,0.5,0.9,0.7,1.4c0.1,0.3,0.6,1.6-0.1,0.4c-0.5-0.9-0.7-1.9-0.7-2.8c-0.1-1.8,1-4.4,2-5.9
				c0.4-0.6,1.4-0.9,2-1.2c0.5-0.2,0.6-0.4,1.1-0.6c0.7-0.2,2.2-0.6,2.8-1c0.3-0.3,1.7-1.4,1.6-1.8c0,0,0-0.1,0-0.2
				c0.1-0.1,0.1-0.1,0.2-0.2c0.1-0.1,0.2,0,0.2,0c0.1,0.2,0.1,0.1,0.1,0.4c0,0.1-0.2,0.2-0.2,0.1c-0.1-0.3,0.1,0,0.1,0.2
				c-0.1,0.3-0.5,0.5-0.8,0.6c-0.8,0.4-0.3,0.7-0.7,0.9c-0.3,0.2-0.7,0.4-1.1,0.5c-2.3,1-4.8,1.3-5.9,3.9c-1.1,2.8-1.7,5.1,0.1,7.8
				c0.1,0.2-0.2,0.4-0.3,0.2c-0.4-0.4-0.3-0.4-0.6-0.9c-0.2-0.3-0.3-0.6-0.5-0.9c-0.3-0.3-0.3-0.5,0-0.8c0.1,0.1,0,0.3-0.2,0.3
				c-0.6-0.3-1.4-0.8-1.3-1.6c0-0.3,0.3-2.1,0-1c-0.1,0-0.1,0-0.2,0.1c0.1-0.2,0.2-0.4,0.3-0.5c0.2-0.3,0.5-0.5,0.8-0.8
				c0.1-0.1,0.3,0,0.2,0.1c-0.1,0.9-0.2,1.7,0,2.6C30.8,23.9,30.4,23.3,30.4,22.5C30.3,22.5,30.4,22.5,30.4,22.5L30.4,22.5z"/>
		</g>
		<g>
			<path class="st1" d="M41.3,15.4c0.5,0.4,1,0.8,1.5,1.2c0.3,0.3,0.8,0.5,1,0.9c0,0,0,0.1,0,0.1c-0.8,0.3-1.8-1.3-2-1.9
				c0,0,0-0.1,0.1-0.1c0.6,0,1.2,0.8,1.5,1.3c0,0.1,0,0.2-0.2,0.2c-0.5-0.2-0.8-0.5-1.2-0.9c-0.5-0.5-1-0.9-1.5-1.3
				c-0.1-0.1,0-0.3,0.2-0.3c0.3,0.1,0.5,0.3,0.7,0.5c0.3,0.3,0.7,0.6,1,0.9c0.1,0.1,0,0.2-0.1,0.2c-0.3-0.1-0.5-0.2-0.7-0.4
				c-0.3-0.3-0.7-0.7-1.1-0.8c0.1-0.1,0.1-0.2,0.2-0.3c0.4,0.4,0.8,0.7,1.2,1.1c0.4,0.4,0.8,0.8,1.3,1.1c-0.1,0.1-0.1,0.1-0.2,0.2
				c-0.2-0.5-0.7-0.9-1.1-1.2c-0.2-0.1,0,0,0,0.2c0,0.1,0.1,0.2,0.2,0.3c0.2,0.2,0.4,0.5,0.6,0.7c0.2,0.2,0.3,0.3,0.5,0.4
				c0.3,0.2,0.1-0.2,0-0.2c-0.1,0-0.3-0.1-0.3-0.2C42.5,16.5,41.9,16,41.3,15.4C41.3,15.4,41.3,15.4,41.3,15.4L41.3,15.4z"/>
		</g>
		<g>
			<path class="st1" d="M52.6,31.8c-0.1-0.4,0.3-0.5,0.5-0.2c0.3,0.4,0.6,1.5,0.1,1.9c-0.1,0.1-0.2,0-0.2,0
				c-0.2-0.3-0.3-0.6-0.3-0.9c0.1,0,0.2,0,0.3,0c0,0.6,0.3,1.2,0.5,1.7c0.1,0.2-0.2,0.2-0.3,0.1c-0.2-0.6,0-1,0.6-0.9
				c0.4,0.1,0.8,0.5,1,0.8c0.3,0.4,0.8,0.7,1.1,1.2c0.1,0.1-0.1,0.3-0.2,0.2c-0.8-0.4-1.5-1.2-2.1-1.8c0.1-0.1,0.2-0.1,0.2-0.2
				c0.7,1,1.9,1.5,2.6,2.6c0.1,0.1-0.1,0.2-0.2,0.2c-0.5-0.3-0.9-0.8-1.3-1.3c-0.4-0.5-1-0.8-1.4-1.3c-0.1-0.1,0.1-0.3,0.2-0.2
				c0.6,0.6,1.3,1.4,2,1.8c-0.1,0.1-0.1,0.1-0.2,0.2c-0.2-0.4-0.6-0.6-0.8-0.9c-0.2-0.2-0.4-0.5-0.6-0.7c-0.4-0.3-0.9-0.2-0.7,0.3
				c-0.1,0-0.2,0.1-0.3,0.1c-0.2-0.6-0.4-1.2-0.5-1.8c0-0.2,0.3-0.2,0.3,0c0,0.3,0.1,0.6,0.3,0.9c-0.1,0-0.1,0-0.2,0
				c0.2-0.2,0.2-0.6,0.2-0.9c0-0.1,0-0.3-0.1-0.4C53.1,31.8,53,31.7,52.6,31.8C52.7,31.8,52.6,31.9,52.6,31.8L52.6,31.8z"/>
		</g>
		<g>
			<path class="st1" d="M59,39.7c0.3,0.2,0.5,0.5,0.7,0.9c0.1,0.3,0.1,0.6,0.2,0.9c0.1,0.2,0.2,0.5,0.3,0.7c0.3,0.7,0.2,0.1,0.2-0.1
				c0-0.1,0.1-0.1,0.1-0.1c1.1,0,1.6,2,2,2.8c-0.1,0-0.2,0-0.3,0.1c0-0.1,0-0.1,0-0.2c0-0.1,0.2-0.2,0.3-0.1c0.2,0.3,0.4,0.6,0.2,1
				c-0.1,0.2-0.3,0.5-0.6,0.3c-0.8-0.8,0.4-1.1,1-1.4c0,0.1,0,0.2,0,0.3c-0.7-0.4-1.3-0.1-2,0c-0.1,0-0.2-0.1-0.2-0.1
				c-0.1-0.5,0.3-1.1,0.9-0.7c0.1,0.1,0.1,0.2,0,0.3c-0.3,0.4-1.2,0.6-1.7,0.3c-0.6-0.4,0.6-1.6,0.4-2c0.1,0,0.2,0,0.2,0
				c-0.1,0.6,0,1.2-0.1,1.7c0,0.1-0.2,0.1-0.1,0c0.1-0.6-0.1-1.2,0-1.8c0-0.1,0.2-0.1,0.2,0c0.3,0.5,0.1,0.9-0.2,1.4
				c-0.4,0.7,1.4,0.5,1.7,0.4c0.4-0.1,0.7,0.1,1.1,0.3c0.1,0.1,0.1,0.2,0,0.3c-0.1,0.1-0.2,0.1-0.4,0.2c-0.5,0.2-0.4,0.3-0.7-0.1
				c0.1,0,0.2-0.1,0.3-0.1c0,0.1,0,0.1,0,0.2c0,0.2-0.2,0.2-0.3,0.1c-0.2-0.4-0.4-0.8-0.6-1.3c-0.1-0.3-0.3-0.6-0.5-0.9
				c-0.3-0.5-0.5-0.5-0.5,0.1c0,0.1-0.1,0.2-0.2,0.1C59.3,42.1,59.8,40.6,59,39.7C58.9,39.7,59,39.7,59,39.7L59,39.7z"/>
		</g>
		<g>
			<path class="st1" d="M60.4,41.7c0.1,0.3,0.1,0.6,0.1,0.9c-0.1,0.3-0.3,0.6-0.5,0.8c-0.1,0.1-0.2,0-0.1-0.1
				c0.2-0.2,0.3-0.4,0.4-0.7c0.1-0.3,0-0.6-0.1-0.8C60.2,41.6,60.4,41.6,60.4,41.7L60.4,41.7z"/>
		</g>
		<g>
			<path class="st1" d="M58.9,44.4c0.1,0.1,0.2,0.3,0.1,0.4C59,45,58.7,45,58.6,44.9c-0.1,0,0-0.1,0-0.2c0.1,0,0.1,0,0.2-0.1
				c0,0-0.1-0.1-0.1-0.1C58.6,44.5,58.8,44.2,58.9,44.4L58.9,44.4z"/>
		</g>
		<g>
			<path class="st1" d="M58.5,44.2c0-0.1,0-0.1-0.1,0c-0.1,0-0.1,0.1-0.2,0.1c-0.1,0.1-0.3,0.1-0.4,0.1c-0.1,0-0.1-0.2,0-0.2
				c0.4,0,0.7-0.6,1-0.1C58.9,44.2,58.6,44.4,58.5,44.2L58.5,44.2z"/>
		</g>
		<g>
			<path class="st1" d="M56.9,44.1c-0.2,0-0.5,0-0.7,0c-0.1,0-0.1-0.1,0-0.1C56.4,44,56.7,44,56.9,44.1
				C56.9,44.1,56.9,44.1,56.9,44.1L56.9,44.1z"/>
		</g>
		<g>
			<path class="st1" d="M59,40.2c-0.4,0.2-1,0.3-1.5,0.1c-0.1,0,0-0.2,0.1-0.1c0.4,0.2,1,0,1.3-0.2C59,39.9,59.1,40.1,59,40.2
				L59,40.2z"/>
		</g>
		<g>
			<path class="st1" d="M31,24.7c0,0.4,0.2,0.7,0.5,0.9c0,0,0,0.1,0,0C31.1,25.4,31,25,31,24.7C31,24.6,31,24.6,31,24.7L31,24.7z"/>
		</g>
		<g>
			<path class="st1" d="M51.9,35.8c0.1,0.1,0.4,0.5,0.5,0.3c0.1-0.1,0.1-0.3,0.2-0.4c0.1-0.3,0.2-0.5,0.3-0.7
				c0.2-0.3,0.4-0.6,0.8-0.4c0,0,0.1,0,0,0.1c0,0,0,0.5-0.1,0.5c0.3,0.1,1,0,1.2-0.3c0,0.1,0.1,0.1,0.1,0.2
				c-0.4,0.1-0.2,0.2-0.5,0.3c0,0-0.1,0-0.1,0.1c-0.1,0.1-0.1,0.1-0.1,0c0.1,0,0,0.1-0.1,0.1c0,0,0,0-0.1,0c0,0-0.1-0.1-0.1-0.1
				c0.1-0.3,0.6-0.5,0.8-0.6c0.1,0,0.2,0.1,0.1,0.2c-0.3,0.4-1.1,0.5-1.6,0.3c-0.1,0-0.1-0.1,0-0.1c0.1-0.1,0.2-0.3,0.1-0.4
				c-0.2-0.1-0.4,0.2-0.5,0.3c-0.1,0.1-0.2,0.3-0.3,0.5c-0.1,0.2-0.2,0.6-0.4,0.8c0,0,0,0,0,0C52.1,36.2,52,36,51.9,35.8
				C51.8,35.8,51.8,35.8,51.9,35.8L51.9,35.8z"/>
		</g>
		<g>
			<path class="st1" d="M53.9,34.1C53.9,34.1,53.9,34.1,53.9,34.1c0-0.1,0-0.1,0.1-0.2c0,0.1,0,0.2,0,0.3c0,0,0,0.1,0,0.1
				c0,0.1-0.1,0.1,0.1,0c0.1,0,0.2,0,0.1,0.1c0,0.3-0.4,0.6-0.6,0.8c-0.1,0.1-0.2-0.1-0.1-0.1c0.2-0.2,0.5-0.4,0.5-0.6
				c0.1,0,0.1,0.1,0.2,0.1c-0.2,0.1-0.3,0.1-0.4,0c-0.2-0.1-0.1-0.4-0.1-0.6c0-0.1,0.1-0.1,0.2-0.1c0.2,0,0.3,0.1,0.2,0.3
				C54.1,34.3,53.9,34.3,53.9,34.1L53.9,34.1z"/>
		</g>
		<g>
			<path class="st1" d="M55.1,35.1c0.4,0.2,0.9,0.4,1.1,0.8c0,0.1,0,0.2-0.1,0.2c-0.1,0-0.1,0-0.2,0c-0.1,0-0.1-0.2,0-0.2
				c0.1,0,0.1,0,0.2,0c0,0.1-0.1,0.1-0.1,0.2c-0.2-0.4-0.7-0.5-1-0.7C54.8,35.3,55,35,55.1,35.1L55.1,35.1z"/>
		</g>
		<g>
			<path class="st1" d="M54.2,35.9c0.5,0.2,0.8,0.4,1.1,0.8c0.1,0.1,0.1,0.2,0,0.2C55.2,37,55.1,37,55,37.1
				c-0.1,0.1-0.2-0.1-0.1-0.2c0.1-0.1,0.1-0.2,0.2-0.2c0,0.1,0,0.1,0,0.2c-0.3-0.3-0.6-0.5-1-0.7C53.9,36.1,54,35.9,54.2,35.9
				L54.2,35.9z"/>
		</g>
		<g>
			<path class="st1" d="M53.5,36.8c0.2,0.1,0.3,0.3,0.4,0.5c0.1,0.2-0.1,0.4-0.3,0.4c-0.1,0-0.2-0.1-0.1-0.2
				c0.2-0.2-0.1-0.4-0.2-0.5C53.2,36.9,53.4,36.7,53.5,36.8L53.5,36.8z"/>
		</g>
	</g>
</g>
</svg>
