<?xml version="1.0" encoding="utf-8"?>
<!-- Generator: Adobe Illustrator 19.2.0, SVG Export Plug-In . SVG Version: 6.00 Build 0)  -->
<svg version="1.1" id="Layer_5" xmlns="http://www.w3.org/2000/svg" xmlns:xlink="http://www.w3.org/1999/xlink" x="0px" y="0px"
	 viewBox="0 0 49 45" style="enable-background:new 0 0 49 45;" xml:space="preserve">
<style type="text/css">
	.st0{fill-rule:evenodd;clip-rule:evenodd;fill:#F2F2F2;}
	.st1{fill:#F2F2F2;}
</style>
<g>
	<path class="st0" d="M38.1,10.8c2.4-0.1,4.9,0.8,6.5,2.3c1.5,1.4,2.3,3.1,2.3,5.2c0,2.1-0.8,3.8-2.3,5.2c-1.6,1.4-3.7,2.1-6.5,2.1
		H12.4c-2.9,0-5.4-0.8-7.5-2.3c-2.1-1.7-3.1-3.8-3.1-6.2c0-2.4,0.8-4.3,2.6-6.1c1.8-1.8,4.2-2.5,7-2.7V7.7c0-1.7,0.6-3.3,1.8-4.7
		c1.2-1.2,2.7-1.8,4.4-1.8c3.3,0,5.4,1.6,6.2,4.9c1.2-1.2,2.8-1.8,4.9-1.8c1.9,0,3.5,0.6,4.9,1.8c1.6,1.4,2.4,3,2.6,4.9
		C36.3,11.1,37.1,10.8,38.1,10.8z"/>
	<path class="st1" d="M30.8,36.7h-2.7c-0.5,0-0.8-0.4-0.8-0.8v-8h-5.8v7.8c0,0.5-0.4,0.9-0.8,0.9h-2.7c-0.4,0-0.7,0.2-0.7,0.5
		c0,0.2,0.1,0.4,0.3,0.5l5.9,6.1c0.2,0.2,0.6,0.4,0.9,0.4h0c0.3,0,0.6-0.1,0.8-0.3l6.1-5.9c0.2-0.2,0.3-0.4,0.3-0.5
		C31.5,36.8,31.2,36.7,30.8,36.7z"/>
</g>
</svg>
