<?xml version="1.0" encoding="utf-8"?>
<!-- Generator: Adobe Illustrator 19.2.0, SVG Export Plug-In . SVG Version: 6.00 Build 0)  -->
<svg version="1.1" id="Layer_5" xmlns="http://www.w3.org/2000/svg" xmlns:xlink="http://www.w3.org/1999/xlink" x="0px" y="0px"
	 viewBox="0 0 43 43" style="enable-background:new 0 0 43 43;" xml:space="preserve">
<style type="text/css">
	.st0{fill:#6AA88E;}
</style>
<g>
	<g>
		<path class="st0" d="M21.8,24.4L21.8,24.4l19.3-15c-0.2-1-1.1-1.8-2.2-1.8h-35C3,7.6,2.2,8.2,1.8,9l15.6,12.1L21.8,24.4z"/>
		<polygon class="st0" points="1.8,12.4 1.8,32.6 13.1,21.2 		"/>
		<path class="st0" d="M23.5,26.5c-0.5,0.4-1.1,0.6-1.7,0.6s-1.1-0.2-1.6-0.5l-4.4-3.3l0,0l-0.5-0.4L2.9,35.3
			c0.2,0.1,0.4,0.1,0.6,0.1H39c0.4,0,0.7-0.1,1-0.2L27.9,23L23.5,26.5z"/>
		<polygon class="st0" points="41.4,32.7 41.4,12.5 30.1,21.4 		"/>
	</g>
</g>
</svg>
