<?xml version="1.0" encoding="utf-8"?>
<!-- Generator: Adobe Illustrator 19.2.0, SVG Export Plug-In . SVG Version: 6.00 Build 0)  -->
<svg version="1.1" id="Layer_5" xmlns="http://www.w3.org/2000/svg" xmlns:xlink="http://www.w3.org/1999/xlink" x="0px" y="0px"
	 viewBox="0 0 49 45" style="enable-background:new 0 0 49 45;" xml:space="preserve">
<style type="text/css">
	.st0{fill:#F2F2F2;}
</style>
<g>
	<g>
		<g>
			<path class="st0" d="M24.7,24.5L24.7,24.5L44,9.5c-0.2-1-1.1-1.8-2.2-1.8h-35c-0.9,0-1.7,0.6-2.1,1.4l15.6,12.1L24.7,24.5z"/>
			<polygon class="st0" points="4.7,12.5 4.7,32.7 16,21.3 			"/>
			<path class="st0" d="M26.4,26.6c-0.5,0.4-1.1,0.6-1.7,0.6s-1.1-0.2-1.6-0.5l-4.4-3.3l0,0L18.2,23L5.8,35.4
				c0.2,0.1,0.4,0.1,0.6,0.1h35.5c0.4,0,0.7-0.1,1-0.2L30.8,23.1L26.4,26.6z"/>
			<polygon class="st0" points="44.3,32.8 44.3,12.6 33,21.5 			"/>
		</g>
	</g>
</g>
</svg>
