<?xml version="1.0" encoding="utf-8"?>
<!-- Generator: Adobe Illustrator 19.2.0, SVG Export Plug-In . SVG Version: 6.00 Build 0)  -->
<svg version="1.1" id="Layer_29" xmlns="http://www.w3.org/2000/svg" xmlns:xlink="http://www.w3.org/1999/xlink" x="0px" y="0px"
	 viewBox="0 0 144.1 4" style="enable-background:new 0 0 144.1 4;" xml:space="preserve">
<style type="text/css">
	.st0{fill:#68A88E;}
</style>
<g>
	<g>
		<path class="st0" d="M4.7,0.8C4.1,0.1,2.9-0.1,2.2,0.6C2.1,0.7,2,0.8,1.9,0.9C1.2,1.5,1.1,2.6,1.7,3.4C2,3.7,2.4,4,2.9,4
			c0.7,0.1,1.2-0.3,1.6-0.7C4.6,3.1,4.7,3,4.8,2.9C5.3,2.4,5.2,1.4,4.7,0.8z"/>
	</g>
	<g>
		<path class="st0" d="M20.9,1.2c-0.1-0.1-0.2-0.2-0.3-0.2c-0.6-0.6-1.5-0.8-2.3-0.2c-0.6,0.5-0.8,1.6-0.2,2.3
			c0.1,0.1,0.2,0.2,0.2,0.3C19,3.9,19.9,4,20.7,3.5C21.3,2.9,21.5,1.8,20.9,1.2z"/>
	</g>
	<g>
		<path class="st0" d="M35.8,0.9c-0.1,0-0.3,0-0.4,0c-0.9,0.2-1.2,1.3-0.7,2c0.3,0.4,1,0.6,1.5,0.4c0.4-0.2,0.6-0.6,0.9-0.9
			C37.6,1.5,36.6,0.6,35.8,0.9z"/>
	</g>
	<g>
		<path class="st0" d="M52.2,0.2c-1,0-2,0.6-2.1,1.7c-0.1,1,0.7,2.1,1.7,2.1c1,0,2-0.6,2.1-1.7C54,1.3,53.3,0.2,52.2,0.2z"/>
	</g>
	<g>
		<path class="st0" d="M61.5,1.6c-0.3-0.6-0.8-1-1.5-0.9c-0.9,0.2-1.3,1.1-1,1.9c0.3,0.7,1.1,1,1.8,0.6C61.3,3,61.8,2.3,61.5,1.6z"
			/>
	</g>
	<g>
		<path class="st0" d="M102,1.8c0-0.5-0.6-0.9-1-0.9c-0.6-0.1-1.2,0.4-1.2,1c0,0.1,0,0.1,0,0.2c0,0.6,0.4,1.2,1,1.2
			c0.8,0.1,1.3-0.6,1.2-1.3C102,1.9,102,1.8,102,1.8z"/>
	</g>
	<g>
		<path class="st0" d="M109.1,1.2C108,1.2,107.8,3,109,3C110.2,3,110.3,1.2,109.1,1.2z"/>
	</g>
	<g>
		<path class="st0" d="M125.5,0.7c-1.8,0-2,2.8-0.2,2.8C127,3.5,127.2,0.7,125.5,0.7z"/>
	</g>
	<g>
		<path class="st0" d="M27.9,0.4c-0.5,0-1.1,0-1.5,0.4c-0.6,0.6-0.9,1.7-0.2,2.4c0.5,0.6,1.1,0.7,1.9,0.6c0.8,0,1.4-0.9,1.4-1.6
			C29.6,1.3,28.9,0.4,27.9,0.4z"/>
	</g>
	<g>
		<path class="st0" d="M43.5,0.9c-0.1,0.1-0.3,0.2-0.5,0.4c-0.3,0.2-0.5,0.6-0.5,1c-0.1,0.6,0.4,1.2,1,1.2c0.5,0,0.9-0.2,1.1-0.6
			c0.1-0.1,0.2-0.2,0.3-0.3C46,1.7,44.6,0,43.5,0.9z"/>
	</g>
	<g>
		<path class="st0" d="M12.5,1.1c-0.4-0.4-0.9-0.5-1.4-0.2C10.5,1,10,1.4,9.9,2.1C9.8,3,10.8,3.7,11.7,3.3c0.1-0.1,0.2-0.1,0.3-0.2
			c-0.2,0.2-0.2,0.1,0.1-0.1c0.2-0.2,0.3-0.3,0.5-0.5C12.9,2.1,12.8,1.5,12.5,1.1z"/>
	</g>
	<g>
		<path class="st0" d="M68.7,1.2c-0.1,0-0.3,0-0.4,0c0,0,0,0,0,0c0,0,0,0,0,0c-0.1,0-0.1,0-0.2,0c0,0,0,0,0,0c-0.1,0-0.2,0-0.2,0.1
			c0,0-0.1,0-0.1,0.1c0,0-0.1,0.1-0.1,0.1c0,0-0.1,0.1-0.1,0.2c0,0,0,0,0,0c-0.1,0.2-0.1,0.4-0.1,0.6c0,0.2,0.1,0.3,0.2,0.4
			c0,0,0,0,0,0c0.1,0.1,0.1,0.1,0.2,0.2c0.1,0,0.2,0.1,0.2,0.1c0,0,0.1,0,0.1,0c0,0,0.1,0,0.1,0c0.2,0,0.4,0,0.7,0
			C69.7,2.8,69.6,1.3,68.7,1.2z"/>
	</g>
	<g>
		<path class="st0" d="M77.5,1.9C77.5,1.7,77.5,1.7,77.5,1.9C77.5,1.4,77,1,76.6,1c-0.5,0-0.7,0.1-1,0.5c-0.2,0.3-0.2,0.7-0.1,1
			c0.1,0.3,0.4,0.5,0.7,0.7l0.3,0.1c-0.2-0.1-0.2,0,0.1,0c0.2,0,0.4,0,0.6-0.2C77.6,2.7,77.7,2.4,77.5,1.9z"/>
	</g>
	<g>
		<path class="st0" d="M85.5,1.3c-0.4-0.5-1.4-0.6-1.7,0.1c-0.2,0.3-0.3,0.6-0.2,0.9c0.2,0.6,0.8,1.1,1.5,0.8c0.1,0,0.2-0.1,0.3-0.2
			C85.8,2.5,85.9,1.8,85.5,1.3z"/>
	</g>
	<g>
		<path class="st0" d="M93.9,1.8c0-0.7-0.8-1.2-1.5-0.9C91.5,1.3,91.3,2.3,92,3c0.4,0.5,1.1,0.6,1.6,0.1C93.9,2.8,94.1,2.2,93.9,1.8
			z"/>
	</g>
	<g>
		<path class="st0" d="M117.9,2.8c0.4-0.4,0.5-1,0.1-1.4c-0.5-0.5-1.2-0.4-1.6,0.1c-0.3,0.3-0.4,0.8-0.2,1.2c0.2,0.4,0.6,0.6,1,0.5
			c0,0,0,0,0,0c0,0,0,0,0,0c0,0,0.1,0,0.1,0C117.6,3,117.8,3,117.9,2.8z"/>
	</g>
	<g>
		<path class="st0" d="M133.7,1.3c-0.1,0-0.2,0-0.2,0c-1.2-0.2-1.2,2,0.1,1.7l0.2,0C134.7,2.8,134.6,1.4,133.7,1.3z"/>
	</g>
	<g>
		<path class="st0" d="M141.6,1.1c-0.4,0.3-0.9,0.3-1.1,0.9c-0.2,0.6,0.3,1.2,0.9,1.1c0.5-0.1,0.9-0.4,1.2-0.8
			C143.1,1.7,142.3,0.7,141.6,1.1z"/>
	</g>
</g>
</svg>
