<?xml version="1.0" encoding="utf-8"?>
<!-- Generator: Adobe Illustrator 19.2.0, SVG Export Plug-In . SVG Version: 6.00 Build 0)  -->
<svg version="1.1" id="Layer_5" xmlns="http://www.w3.org/2000/svg" xmlns:xlink="http://www.w3.org/1999/xlink" x="0px" y="0px"
	 viewBox="0 0 43 43" style="enable-background:new 0 0 43 43;" xml:space="preserve">
<style type="text/css">
	.st0{fill:#6AA88E;}
</style>
<g>
	<g>
		<path class="st0" d="M30.4,2.7H12.6c-1.7,0-3.2,1.5-3.2,3.2v31.2c0,1.7,1.5,3.2,3.2,3.2h17.8c1.7,0,3.2-1.5,3.2-3.2V5.9
			C33.6,4.2,32.1,2.7,30.4,2.7z M21.9,38.6c-0.7,0-1.4-0.6-1.4-1.4c0-0.7,0.6-1.4,1.4-1.4s1.4,0.6,1.4,1.4
			C23.2,37.9,22.6,38.6,21.9,38.6z M30.9,33.1c0,0.5-0.4,0.9-0.9,0.9H13c-0.5,0-0.9-0.4-0.9-0.9V6.5c0-0.5,0.4-0.9,0.9-0.9h17.1
			C30.6,5.6,31,6,31,6.5L30.9,33.1L30.9,33.1z"/>
	</g>
</g>
</svg>
