<?xml version="1.0" encoding="utf-8"?>
<!-- Generator: Adobe Illustrator 19.2.0, SVG Export Plug-In . SVG Version: 6.00 Build 0)  -->
<svg version="1.1" id="Layer_3" xmlns="http://www.w3.org/2000/svg" xmlns:xlink="http://www.w3.org/1999/xlink" x="0px" y="0px"
	 viewBox="0 0 52 43" style="enable-background:new 0 0 52 43;" xml:space="preserve">
<style type="text/css">
	.st0{fill:#7AA592;}
	.st1{fill:#597754;}
</style>
<path class="st0" d="M13.3,16.6L13,12.8c-0.1-0.4-0.5-0.6-0.9-0.5L0.9,15.1c-0.4,0.1-0.6,0.5-0.5,0.9L2,19.5
	c0.1,0.4,0.5,0.6,0.9,0.5l9.8-2.5C13.2,17.4,13.4,17,13.3,16.6z"/>
<path class="st0" d="M12.3,11.6c-0.5-3-3.1-5.2-6.2-5.2C2.7,6.5,0,9.3,0,12.8c0,0.7,0.1,1.3,0.4,2L12.3,11.6z"/>
<path class="st0" d="M6.2,6c2.6,0,4.8,1.4,5.9,3.6C13.1,8.5,16.1,8,26,8C36.1,8,39,8.5,39.9,9.6C41,7.4,43.2,6,45.8,6
	c0,0,0.1,0,0.1,0c1.4,0,2.7,0.5,3.8,1.3C47.3,4.3,41.6,0.8,26,0.8C10.6,0.8,4.7,4.3,2.3,7.2C3.4,6.5,4.7,6,6.1,6C6.2,6,6.2,6,6.2,6z
	"/>
<path class="st0" d="M51.1,15.1L40,12.2c-0.4-0.1-0.8,0.1-0.9,0.5l-0.3,3.9c-0.1,0.4,0.1,0.8,0.5,0.9l9.8,2.5
	c0.4,0.1,0.8-0.1,0.9-0.5l1.6-3.5C51.7,15.6,51.5,15.2,51.1,15.1z"/>
<path class="st1" d="M45.5,34c-1.6-1.4-5.5-2.8-5.5-4.6c0-4.6-4.2-8.6-10-9.8c0-0.4-0.1-0.9-0.1-1.2c1,0.1,1.8-0.3,2.3-0.9
	c1.6-1.7,1.6-6.9,1.6-6.9H32c0,0-0.4,2.7-5.9,2.7c-5.6,0-6-2.7-6-2.7h-1.9c0,0,0,5.2,1.6,6.9c0.5,0.5,1.3,1,2.3,0.9
	c0,0.3,0,0.8-0.1,1.2c-5.8,1.3-10,5.2-10,9.8c0,1.8-3.9,3.3-5.5,4.6c-0.5,0.5-2.5,1.9-2.5,4.7C3.9,41.6,5.7,43,7,43h19h19
	c1.4,0,3.1-1.4,3.1-4.3C48.1,35.8,46,34.4,45.5,34z M39.1,31.5c-1.3,4.4-6.6,7.6-13,7.6c0,0-0.1,0-0.1,0c0,0-0.1,0-0.1,0
	c-6.3,0-11.6-3.3-13-7.6c-0.2-0.7-0.3-1.4-0.3-2.2c0-4.4,3.9-8.1,9.3-9.3c1.3-0.3,2.6-0.5,4-0.5c0,0,0.1,0,0.1,0c0,0,0,0,0.1,0
	c1.4,0,2.7,0.2,4,0.5c5.4,1.3,9.3,5,9.3,9.3C39.4,30.1,39.3,30.8,39.1,31.5z"/>
<path class="st0" d="M39.7,11.6l11.9,3.1c0.2-0.6,0.3-1.3,0.4-2c0.1-3.4-2.7-6.2-6.1-6.3C42.8,6.4,40.2,8.6,39.7,11.6z"/>
<path class="st0" d="M30.2,20.6c-1.3-0.3-2.6-0.5-4-0.5c-0.1,0-0.2,0-0.2,0c-0.1,0-0.1,0-0.2,0c-1.4,0-2.7,0.2-4,0.5
	c-5,1.2-8.6,4.7-8.6,8.8c0,0.6,0.1,1.3,0.3,1.9c1.2,4.2,6.2,7.4,12.3,7.4c0.1,0,0.1,0,0.2,0c0,0,0.1,0,0.2,0
	c6.1,0,11.1-3.2,12.3-7.4c0.2-0.6,0.3-1.2,0.3-1.9C38.8,25.2,35.2,21.8,30.2,20.6z M32.7,25.4c0.2-0.6,1.1-1,1.9-0.8
	c0.8,0.1,1.3,0.8,1.1,1.4c-0.2,0.6-1.1,1-1.9,0.8C33,26.6,32.5,26,32.7,25.4z M24.6,22.2c0.2-0.5,0.8-0.8,1.5-0.9c0.1,0,0.3,0,0.4,0
	c0.8,0.1,1.3,0.8,1.1,1.4c-0.2,0.5-0.8,0.8-1.5,0.9c-0.1,0-0.3,0-0.4,0C24.8,23.4,24.3,22.8,24.6,22.2z M20.1,23.4
	c0.2-0.6,1.1-1,1.9-0.8c0.8,0.1,1.3,0.8,1.1,1.4c-0.2,0.6-1.1,1-1.9,0.8C20.4,24.6,19.9,24,20.1,23.4z M25.9,24.9
	C26,24.9,26,24.9,25.9,24.9c0.1,0,0.1,0,0.1,0c3.3,0,6,2,6,4.4c0,2.4-2.7,4.4-6,4.4c0,0-0.1,0-0.1,0c0,0,0,0-0.1,0c-3.3,0-6-2-6-4.4
	C20,26.9,22.7,24.9,25.9,24.9z M15.3,29.2c0.2-0.6,1.1-1,1.9-0.8c0.8,0.1,1.3,0.8,1.1,1.4c-0.2,0.6-1.1,1-1.9,0.8
	C15.5,30.4,15,29.8,15.3,29.2z M19.3,33.1c-0.2,0.6-1.1,1-1.9,0.8c-0.8-0.1-1.3-0.8-1.1-1.4c0.2-0.6,1.1-1,1.9-0.8
	C19,31.9,19.5,32.5,19.3,33.1z M19.5,26.2c-0.2,0.6-1.1,1-1.9,0.8c-0.8-0.1-1.3-0.8-1.1-1.4c0.2-0.6,1.1-1,1.9-0.8
	C19.3,25,19.8,25.6,19.5,26.2z M22.7,35.7c-0.2,0.6-1.1,1-1.9,0.8c-0.8-0.1-1.3-0.8-1.1-1.4c0.2-0.6,1.1-1,1.9-0.8
	C22.4,34.5,22.9,35.1,22.7,35.7z M27.4,36.5c-0.2,0.5-0.7,0.8-1.3,0.8c-0.2,0-0.4,0-0.6,0c-0.8-0.1-1.3-0.8-1.1-1.4
	c0.2-0.5,0.9-0.9,1.6-0.9c0.1,0,0.2,0,0.3,0C27.1,35.3,27.6,35.9,27.4,36.5z M32,35.6c-0.2,0.6-1.1,1-1.9,0.8
	c-0.8-0.1-1.3-0.8-1.1-1.4c0.2-0.6,1.1-1,1.9-0.8C31.8,34.4,32.3,35,32,35.6z M32.2,23.6c-0.2,0.6-1.1,1-1.9,0.8
	c-0.8-0.1-1.3-0.8-1.1-1.4c0.2-0.6,1.1-1,1.9-0.8C32,22.4,32.4,23,32.2,23.6z M35.7,33.1c-0.2,0.6-1.1,1-1.9,0.8
	c-0.8-0.1-1.3-0.8-1.1-1.4c0.2-0.6,1.1-1,1.9-0.8S35.9,32.5,35.7,33.1z M37,29.6c-0.2,0.6-1.1,1-1.9,0.8c-0.8-0.1-1.3-0.8-1.1-1.4
	c0.2-0.6,1.1-1,1.9-0.8C36.7,28.4,37.2,29,37,29.6z"/>
</svg>
