<?xml version="1.0" encoding="UTF-8" ?>
<!DOCTYPE svg PUBLIC "-//W3C//DTD SVG 1.1//EN" "http://www.w3.org/Graphics/SVG/1.1/DTD/svg11.dtd">
<svg width="43pt" height="43pt" viewBox="0 0 43 43" version="1.1" xmlns="http://www.w3.org/2000/svg">
<g id="#86c1b5ff">
<path fill="#86c1b5" opacity="1.00" d=" M 11.37 4.26 C 17.57 -1.52 28.77 -0.61 33.56 6.50 C 35.66 9.46 35.91 13.17 35.78 16.67 C 38.07 16.80 41.35 16.44 42.35 19.12 C 42.72 25.42 42.38 31.75 42.52 38.06 C 42.86 40.19 41.28 42.56 38.98 42.45 C 27.33 42.54 15.67 42.54 4.02 42.45 C 1.72 42.56 0.13 40.17 0.48 38.03 C 0.61 31.74 0.29 25.43 0.64 19.14 C 1.62 16.44 4.92 16.79 7.22 16.67 C 6.91 12.21 7.84 7.31 11.37 4.26 M 13.67 7.68 C 11.26 10.05 11.21 13.60 11.19 16.75 C 18.06 16.75 24.94 16.75 31.81 16.75 C 31.80 13.58 31.73 10.02 29.30 7.64 C 25.37 3.07 17.58 3.09 13.67 7.68 M 4.50 20.50 C 4.50 26.59 4.50 32.67 4.50 38.75 C 15.84 38.74 27.17 38.77 38.51 38.74 C 38.49 32.66 38.50 26.58 38.50 20.50 C 27.17 20.50 15.83 20.50 4.50 20.50 Z" />
<path fill="#86c1b5" opacity="1.00" d=" M 18.04 25.26 C 19.88 22.32 25.48 23.42 25.53 27.03 C 25.82 28.69 24.57 29.81 23.52 30.85 C 23.52 32.13 23.53 33.40 23.55 34.68 C 22.20 34.69 20.85 34.72 19.50 34.77 C 19.50 33.46 19.48 32.16 19.46 30.85 C 17.79 29.59 16.65 27.13 18.04 25.26 Z" />
</g>
</svg>
