<?xml version="1.0" encoding="utf-8"?>
<!-- Generator: Adobe Illustrator 19.2.0, SVG Export Plug-In . SVG Version: 6.00 Build 0)  -->
<svg version="1.1" id="Layer_28" xmlns="http://www.w3.org/2000/svg" xmlns:xlink="http://www.w3.org/1999/xlink" x="0px" y="0px"
	 viewBox="0 0 441 47" style="enable-background:new 0 0 441 47;" xml:space="preserve">
<style type="text/css">
	.st0{fill:#917471;}
	.st1{fill:#E89B9A;}
	.st2{fill:#C4D6CE;}
</style>
<g>
	<g>
		<path class="st0" d="M415.1,23.7H305.5c-0.6,0-1.1-0.5-1.1-1.1c0-0.6,0.5-1.1,1.1-1.1h109.5c0.6,0,1.1,0.5,1.1,1.1
			C416.2,23.2,415.7,23.7,415.1,23.7z"/>
	</g>
	<g>
		<path class="st0" d="M369.5,43.2c-0.2,0-0.4,0-0.6-0.1l-34.2-19.5c-0.3-0.2-0.6-0.6-0.6-1c0-0.4,0.2-0.8,0.5-1
			c0.2-0.1,23.7-14.1,31.4-20c0.5-0.4,1.2-0.3,1.6,0.2c0.4,0.5,0.3,1.2-0.2,1.6c-6.7,5.2-24.5,15.9-30,19.2L370,41.1
			c0.5,0.3,0.7,1,0.4,1.5C370.2,43,369.9,43.2,369.5,43.2z"/>
	</g>
	<g>
		<path class="st0" d="M394,43.8c-0.2,0-0.4,0-0.6-0.1l-34.2-19.5c-0.3-0.2-0.6-0.6-0.6-1s0.2-0.8,0.5-1c0.2-0.1,23.7-14.1,31.4-20
			c0.5-0.4,1.2-0.3,1.6,0.2c0.4,0.5,0.3,1.2-0.2,1.6c-6.7,5.2-24.5,15.9-30,19.2l32.5,18.6c0.5,0.3,0.7,1,0.4,1.5
			C394.8,43.6,394.4,43.8,394,43.8z"/>
	</g>
	<g>
		<path class="st0" d="M419.4,43.2c-0.2,0-0.4,0-0.6-0.1l-34.2-19.5c-0.3-0.2-0.6-0.6-0.6-1c0-0.4,0.2-0.8,0.5-1
			c0.2-0.1,23.7-14.1,31.4-20c0.5-0.4,1.2-0.3,1.6,0.2c0.4,0.5,0.3,1.2-0.2,1.6c-6.7,5.2-24.5,15.9-30,19.2L420,41.1
			c0.5,0.3,0.7,1,0.4,1.5C420.2,43,419.8,43.2,419.4,43.2z"/>
	</g>
	<g>
		<path class="st1" d="M221.4,37.4c-7.3-4-17.3-31-8.8-33.6c6-0.1,5.7,9.4,7.9,13.5c1.1-10.9,11.4-13.8,8.8-0.4
			c-1.3,6.7-5.4,13.8-8.3,20"/>
	</g>
	<g>
		<path class="st2" d="M248.5,20.1c-11.5-0.4-3.7,14.2,3.6,3.5c-1.3-2.3-3.1-2.8-5.3-3.5"/>
	</g>
	<g>
		<path class="st2" d="M264.3,20.1c-11.5-0.4-3.7,14.2,3.6,3.5c-1.3-2.3-3.1-2.8-5.3-3.5"/>
	</g>
	<g>
		<path class="st2" d="M282.6,20.1c-11.5-0.4-3.7,14.2,3.6,3.5c-1.3-2.3-3.1-2.8-5.3-3.5"/>
	</g>
	<g>
		<path class="st0" d="M139,25.5H29.5c-0.6,0-1.1-0.5-1.1-1.1s0.5-1.1,1.1-1.1H139c0.6,0,1.1,0.5,1.1,1.1S139.6,25.5,139,25.5z"/>
	</g>
	<g>
		<path class="st0" d="M75.1,45c-0.4,0-0.8-0.2-1-0.6c-0.3-0.5-0.1-1.2,0.4-1.5L107,24.4c-5.5-3.3-23.3-14-30-19.2
			c-0.5-0.4-0.6-1.1-0.2-1.6c0.4-0.5,1.1-0.6,1.6-0.2c7.7,6,31.2,19.9,31.4,20c0.3,0.2,0.5,0.6,0.5,1c0,0.4-0.2,0.8-0.6,1L75.6,44.9
			C75.4,45,75.2,45,75.1,45z"/>
	</g>
	<g>
		<path class="st0" d="M50.5,45.6c-0.4,0-0.8-0.2-1-0.6c-0.3-0.5-0.1-1.2,0.4-1.5L82.5,25c-5.5-3.3-23.3-14-30-19.2
			c-0.5-0.4-0.6-1.1-0.2-1.6c0.4-0.5,1.1-0.6,1.6-0.2c7.7,6,31.2,19.9,31.4,20c0.3,0.2,0.5,0.6,0.5,1c0,0.4-0.2,0.8-0.6,1L51.1,45.5
			C50.9,45.6,50.7,45.6,50.5,45.6z"/>
	</g>
	<g>
		<path class="st0" d="M25.1,45c-0.4,0-0.8-0.2-1-0.6c-0.3-0.5-0.1-1.2,0.4-1.5l32.5-18.6c-5.5-3.3-23.3-14-30-19.2
			c-0.5-0.4-0.6-1.1-0.2-1.6c0.4-0.5,1.1-0.6,1.6-0.2c7.7,6,31.2,19.9,31.4,20c0.3,0.2,0.5,0.6,0.5,1s-0.2,0.8-0.6,1L25.7,44.9
			C25.5,45,25.3,45,25.1,45z"/>
	</g>
	<g>
		<path class="st2" d="M159.1,20.1c-11.5-0.4-3.7,14.2,3.6,3.5c-1.3-2.3-3.1-2.8-5.3-3.5"/>
	</g>
	<g>
		<path class="st2" d="M175,20.1c-11.5-0.4-3.7,14.2,3.6,3.5c-1.3-2.3-3.1-2.8-5.3-3.5"/>
	</g>
	<g>
		<path class="st2" d="M193.3,20.1c-11.5-0.4-3.7,14.2,3.6,3.5c-1.3-2.3-3.1-2.8-5.3-3.5"/>
	</g>
</g>
</svg>
