<?xml version="1.0" encoding="UTF-8" ?>
<!DOCTYPE svg PUBLIC "-//W3C//DTD SVG 1.1//EN" "http://www.w3.org/Graphics/SVG/1.1/DTD/svg11.dtd">
<svg width="33pt" height="43pt" viewBox="0 0 33 43" version="1.1" xmlns="http://www.w3.org/2000/svg">
<g id="#86c1b5ff">
<path fill="#86c1b5" opacity="1.00" d=" M 12.40 1.41 C 18.24 -1.84 25.53 3.55 25.29 9.91 C 26.06 16.26 19.18 22.31 13.05 19.58 C 5.62 16.74 5.24 4.80 12.40 1.41 M 13.42 5.48 C 9.88 8.20 10.71 14.75 15.06 16.15 C 18.61 17.17 21.71 13.35 21.29 10.02 C 21.46 6.16 16.70 2.47 13.42 5.48 Z" />
<path fill="#86c1b5" opacity="1.00" d=" M 7.36 23.54 C 14.33 21.91 22.24 21.73 28.68 25.19 C 33.48 28.24 32.18 34.40 31.83 39.14 C 31.61 40.29 31.91 42.61 30.07 42.40 C 20.31 42.49 10.51 42.76 0.76 42.23 C 0.53 39.56 0.15 36.90 0.00 34.22 L 0.00 30.19 C 1.08 26.83 3.87 24.20 7.36 23.54 M 6.19 28.16 C 2.54 30.47 4.47 35.25 4.31 38.76 C 12.16 38.72 20.02 38.80 27.88 38.71 C 27.82 35.15 29.73 30.24 25.79 28.06 C 19.58 25.64 12.36 25.60 6.19 28.16 Z" />
</g>
</svg>
